<?xml version="1.0" encoding="utf-8" standalone="no"?>
<!DOCTYPE svg PUBLIC "-//W3C//DTD SVG 1.1//EN"
  "http://www.w3.org/Graphics/SVG/1.1/DTD/svg11.dtd">
<svg xmlns:xlink="http://www.w3.org/1999/xlink" width="953.650781pt" height="393.919531pt" viewBox="0 0 953.650781 393.919531" xmlns="http://www.w3.org/2000/svg" version="1.1">
 <metadata>
  <rdf:RDF xmlns:dc="http://purl.org/dc/elements/1.1/" xmlns:cc="http://creativecommons.org/ns#" xmlns:rdf="http://www.w3.org/1999/02/22-rdf-syntax-ns#">
   <cc:Work>
    <dc:type rdf:resource="http://purl.org/dc/dcmitype/StillImage"/>
    <dc:date>2026-06-28T15:19:20.317634</dc:date>
    <dc:format>image/svg+xml</dc:format>
    <dc:creator>
     <cc:Agent>
      <dc:title>Matplotlib v3.11.0, https://matplotlib.org/</dc:title>
     </cc:Agent>
    </dc:creator>
   </cc:Work>
  </rdf:RDF>
 </metadata>
 <defs>
  <style type="text/css">*{stroke-linejoin: round; stroke-linecap: butt}</style>
 </defs>
 <g id="figure_1">
  <g id="patch_1">
   <path d="M 0 393.919531 
L 953.650781 393.919531 
L 953.650781 0 
L 0 0 
z
" style="fill: #191919"/>
  </g>
  <g id="axes_1">
   <g id="patch_2">
    <path d="M 53.650781 355.717969 
L 946.450781 355.717969 
L 946.450781 23.077969 
L 53.650781 23.077969 
z
" style="fill: #191919"/>
   </g>
   <g id="patch_3">
    <path d="M 94.232599 355.717969 
L 168.017723 355.717969 
L 168.017723 280.269452 
L 94.232599 280.269452 
z
" clip-path="url(#p6a640e97e1)" style="fill: #2f9cf5"/>
   </g>
   <g id="patch_4">
    <path d="M 94.232599 280.269452 
L 168.017723 280.269452 
L 168.017723 260.760163 
L 94.232599 260.760163 
z
" clip-path="url(#p6a640e97e1)" style="fill: #5cb1f7"/>
   </g>
   <g id="patch_5">
    <path d="M 217.207806 355.717969 
L 290.99293 355.717969 
L 290.99293 330.609403 
L 217.207806 330.609403 
z
" clip-path="url(#p6a640e97e1)" style="fill: #2f9cf5"/>
   </g>
   <g id="patch_6">
    <path d="M 340.183013 355.717969 
L 413.968137 355.717969 
L 413.968137 263.792842 
L 340.183013 263.792842 
z
" clip-path="url(#p6a640e97e1)" style="fill: #2f9cf5"/>
   </g>
   <g id="patch_7">
    <path d="M 340.183013 263.792842 
L 413.968137 263.792842 
L 413.968137 177.819701 
L 340.183013 177.819701 
z
" clip-path="url(#p6a640e97e1)" style="fill: #5cb1f7"/>
   </g>
   <g id="patch_8">
    <path d="M 340.183013 177.819701 
L 413.968137 177.819701 
L 413.968137 158.263174 
L 340.183013 158.263174 
z
" clip-path="url(#p6a640e97e1)" style="fill: #89c6f9"/>
   </g>
   <g id="patch_9">
    <path d="M 340.183013 158.263174 
L 413.968137 158.263174 
L 413.968137 147.50236 
L 340.183013 147.50236 
z
" clip-path="url(#p6a640e97e1)" style="fill: #b6dcfb"/>
   </g>
   <g id="patch_10">
    <path d="M 463.158219 355.717969 
L 536.943343 355.717969 
L 536.943343 322.651376 
L 463.158219 322.651376 
z
" clip-path="url(#p6a640e97e1)" style="fill: #2f9cf5"/>
   </g>
   <g id="patch_11">
    <path d="M 586.133426 355.717969 
L 659.91855 355.717969 
L 659.91855 190.825894 
L 586.133426 190.825894 
z
" clip-path="url(#p6a640e97e1)" style="fill: #2f9cf5"/>
   </g>
   <g id="patch_12">
    <path d="M 586.133426 190.825894 
L 659.91855 190.825894 
L 659.91855 38.917969 
L 586.133426 38.917969 
z
" clip-path="url(#p6a640e97e1)" style="fill: #5cb1f7"/>
   </g>
   <g id="patch_13">
    <path d="M 709.108632 355.717969 
L 782.893756 355.717969 
L 782.893756 319.943065 
L 709.108632 319.943065 
z
" clip-path="url(#p6a640e97e1)" style="fill: #2f9cf5"/>
   </g>
   <g id="patch_14">
    <path d="M 832.083839 355.717969 
L 905.868963 355.717969 
L 905.868963 317.066796 
L 832.083839 317.066796 
z
" clip-path="url(#p6a640e97e1)" style="fill: #2f9cf5"/>
   </g>
   <g id="matplotlib.axis_1">
    <g id="xtick_1">
     <g id="line2d_1">
      <defs>
       <path id="m02d1dc51f5" d="M 0 0 
L 0 3.5 
" style="stroke: #8b949e; stroke-width: 0.8"/>
      </defs>
      <g>
       <use xlink:href="#m02d1dc51f5" x="131.125161" y="355.717969" style="fill: #8b949e; stroke: #8b949e; stroke-width: 0.8"/>
      </g>
     </g>
     <g id="text_1">
      <!-- Bicipiti -->
      <g style="fill: #8b949e" transform="translate(114.254849 370.316406) scale(0.1 -0.1)">
       <defs>
        <path id="DejaVuSans-25" d="M 1259 2228 
L 1259 519 
L 2272 519 
Q 2781 519 3026 730 
Q 3272 941 3272 1375 
Q 3272 1813 3026 2020 
Q 2781 2228 2272 2228 
L 1259 2228 
z
M 1259 4147 
L 1259 2741 
L 2194 2741 
Q 2656 2741 2882 2914 
Q 3109 3088 3109 3444 
Q 3109 3797 2882 3972 
Q 2656 4147 2194 4147 
L 1259 4147 
z
M 628 4666 
L 2241 4666 
Q 2963 4666 3353 4366 
Q 3744 4066 3744 3513 
Q 3744 3084 3544 2831 
Q 3344 2578 2956 2516 
Q 3422 2416 3680 2098 
Q 3938 1781 3938 1306 
Q 3938 681 3513 340 
Q 3088 0 2303 0 
L 628 0 
L 628 4666 
z
" transform="scale(0.015625)"/>
        <path id="DejaVuSans-4c" d="M 603 3500 
L 1178 3500 
L 1178 0 
L 603 0 
L 603 3500 
z
M 603 4863 
L 1178 4863 
L 1178 4134 
L 603 4134 
L 603 4863 
z
" transform="scale(0.015625)"/>
        <path id="DejaVuSans-46" d="M 3122 3366 
L 3122 2828 
Q 2878 2963 2633 3030 
Q 2388 3097 2138 3097 
Q 1578 3097 1268 2742 
Q 959 2388 959 1747 
Q 959 1106 1268 751 
Q 1578 397 2138 397 
Q 2388 397 2633 464 
Q 2878 531 3122 666 
L 3122 134 
Q 2881 22 2623 -34 
Q 2366 -91 2075 -91 
Q 1284 -91 818 406 
Q 353 903 353 1747 
Q 353 2603 823 3093 
Q 1294 3584 2113 3584 
Q 2378 3584 2631 3529 
Q 2884 3475 3122 3366 
z
" transform="scale(0.015625)"/>
        <path id="DejaVuSans-53" d="M 1159 525 
L 1159 -1331 
L 581 -1331 
L 581 3500 
L 1159 3500 
L 1159 2969 
Q 1341 3281 1617 3432 
Q 1894 3584 2278 3584 
Q 2916 3584 3314 3078 
Q 3713 2572 3713 1747 
Q 3713 922 3314 415 
Q 2916 -91 2278 -91 
Q 1894 -91 1617 61 
Q 1341 213 1159 525 
z
M 3116 1747 
Q 3116 2381 2855 2742 
Q 2594 3103 2138 3103 
Q 1681 3103 1420 2742 
Q 1159 2381 1159 1747 
Q 1159 1113 1420 752 
Q 1681 391 2138 391 
Q 2594 391 2855 752 
Q 3116 1113 3116 1747 
z
" transform="scale(0.015625)"/>
        <path id="DejaVuSans-57" d="M 1172 4494 
L 1172 3500 
L 2356 3500 
L 2356 3053 
L 1172 3053 
L 1172 1153 
Q 1172 725 1289 603 
Q 1406 481 1766 481 
L 2356 481 
L 2356 0 
L 1766 0 
Q 1100 0 847 248 
Q 594 497 594 1153 
L 594 3053 
L 172 3053 
L 172 3500 
L 594 3500 
L 594 4494 
L 1172 4494 
z
" transform="scale(0.015625)"/>
       </defs>
       <use xlink:href="#DejaVuSans-25"/>
       <use xlink:href="#DejaVuSans-4c" transform="translate(68.609375 0)"/>
       <use xlink:href="#DejaVuSans-46" transform="translate(96.390625 0)"/>
       <use xlink:href="#DejaVuSans-4c" transform="translate(151.375 0)"/>
       <use xlink:href="#DejaVuSans-53" transform="translate(179.15625 0)"/>
       <use xlink:href="#DejaVuSans-4c" transform="translate(242.640625 0)"/>
       <use xlink:href="#DejaVuSans-57" transform="translate(270.421875 0)"/>
       <use xlink:href="#DejaVuSans-4c" transform="translate(309.625 0)"/>
      </g>
     </g>
    </g>
    <g id="xtick_2">
     <g id="line2d_2">
      <g>
       <use xlink:href="#m02d1dc51f5" x="254.100368" y="355.717969" style="fill: #8b949e; stroke: #8b949e; stroke-width: 0.8"/>
      </g>
     </g>
     <g id="text_2">
      <!-- Core -->
      <g style="fill: #8b949e" transform="translate(242.527712 370.315625) scale(0.1 -0.1)">
       <defs>
        <path id="DejaVuSans-26" d="M 4122 4306 
L 4122 3641 
Q 3803 3938 3442 4084 
Q 3081 4231 2675 4231 
Q 1875 4231 1450 3742 
Q 1025 3253 1025 2328 
Q 1025 1406 1450 917 
Q 1875 428 2675 428 
Q 3081 428 3442 575 
Q 3803 722 4122 1019 
L 4122 359 
Q 3791 134 3420 21 
Q 3050 -91 2638 -91 
Q 1578 -91 968 557 
Q 359 1206 359 2328 
Q 359 3453 968 4101 
Q 1578 4750 2638 4750 
Q 3056 4750 3426 4639 
Q 3797 4528 4122 4306 
z
" transform="scale(0.015625)"/>
        <path id="DejaVuSans-52" d="M 1959 3097 
Q 1497 3097 1228 2736 
Q 959 2375 959 1747 
Q 959 1119 1226 758 
Q 1494 397 1959 397 
Q 2419 397 2687 759 
Q 2956 1122 2956 1747 
Q 2956 2369 2687 2733 
Q 2419 3097 1959 3097 
z
M 1959 3584 
Q 2709 3584 3137 3096 
Q 3566 2609 3566 1747 
Q 3566 888 3137 398 
Q 2709 -91 1959 -91 
Q 1206 -91 779 398 
Q 353 888 353 1747 
Q 353 2609 779 3096 
Q 1206 3584 1959 3584 
z
" transform="scale(0.015625)"/>
        <path id="DejaVuSans-55" d="M 2631 2963 
Q 2534 3019 2420 3045 
Q 2306 3072 2169 3072 
Q 1681 3072 1420 2755 
Q 1159 2438 1159 1844 
L 1159 0 
L 581 0 
L 581 3500 
L 1159 3500 
L 1159 2956 
Q 1341 3275 1631 3429 
Q 1922 3584 2338 3584 
Q 2397 3584 2469 3576 
Q 2541 3569 2628 3553 
L 2631 2963 
z
" transform="scale(0.015625)"/>
        <path id="DejaVuSans-48" d="M 3597 1894 
L 3597 1613 
L 953 1613 
Q 991 1019 1311 708 
Q 1631 397 2203 397 
Q 2534 397 2845 478 
Q 3156 559 3463 722 
L 3463 178 
Q 3153 47 2828 -22 
Q 2503 -91 2169 -91 
Q 1331 -91 842 396 
Q 353 884 353 1716 
Q 353 2575 817 3079 
Q 1281 3584 2069 3584 
Q 2775 3584 3186 3129 
Q 3597 2675 3597 1894 
z
M 3022 2063 
Q 3016 2534 2758 2815 
Q 2500 3097 2075 3097 
Q 1594 3097 1305 2825 
Q 1016 2553 972 2059 
L 3022 2063 
z
" transform="scale(0.015625)"/>
       </defs>
       <use xlink:href="#DejaVuSans-26"/>
       <use xlink:href="#DejaVuSans-52" transform="translate(69.828125 0)"/>
       <use xlink:href="#DejaVuSans-55" transform="translate(131.015625 0)"/>
       <use xlink:href="#DejaVuSans-48" transform="translate(169.921875 0)"/>
      </g>
     </g>
    </g>
    <g id="xtick_3">
     <g id="line2d_3">
      <g>
       <use xlink:href="#m02d1dc51f5" x="377.075575" y="355.717969" style="fill: #8b949e; stroke: #8b949e; stroke-width: 0.8"/>
      </g>
     </g>
     <g id="text_3">
      <!-- Gambe -->
      <g style="fill: #8b949e" transform="translate(359.0162 370.316406) scale(0.1 -0.1)">
       <defs>
        <path id="DejaVuSans-2a" d="M 3809 666 
L 3809 1919 
L 2778 1919 
L 2778 2438 
L 4434 2438 
L 4434 434 
Q 4069 175 3628 42 
Q 3188 -91 2688 -91 
Q 1594 -91 976 548 
Q 359 1188 359 2328 
Q 359 3472 976 4111 
Q 1594 4750 2688 4750 
Q 3144 4750 3555 4637 
Q 3966 4525 4313 4306 
L 4313 3634 
Q 3963 3931 3569 4081 
Q 3175 4231 2741 4231 
Q 1884 4231 1454 3753 
Q 1025 3275 1025 2328 
Q 1025 1384 1454 906 
Q 1884 428 2741 428 
Q 3075 428 3337 486 
Q 3600 544 3809 666 
z
" transform="scale(0.015625)"/>
        <path id="DejaVuSans-44" d="M 2194 1759 
Q 1497 1759 1228 1600 
Q 959 1441 959 1056 
Q 959 750 1161 570 
Q 1363 391 1709 391 
Q 2188 391 2477 730 
Q 2766 1069 2766 1631 
L 2766 1759 
L 2194 1759 
z
M 3341 1997 
L 3341 0 
L 2766 0 
L 2766 531 
Q 2569 213 2275 61 
Q 1981 -91 1556 -91 
Q 1019 -91 701 211 
Q 384 513 384 1019 
Q 384 1609 779 1909 
Q 1175 2209 1959 2209 
L 2766 2209 
L 2766 2266 
Q 2766 2663 2505 2880 
Q 2244 3097 1772 3097 
Q 1472 3097 1187 3025 
Q 903 2953 641 2809 
L 641 3341 
Q 956 3463 1253 3523 
Q 1550 3584 1831 3584 
Q 2591 3584 2966 3190 
Q 3341 2797 3341 1997 
z
" transform="scale(0.015625)"/>
        <path id="DejaVuSans-50" d="M 3328 2828 
Q 3544 3216 3844 3400 
Q 4144 3584 4550 3584 
Q 5097 3584 5394 3201 
Q 5691 2819 5691 2113 
L 5691 0 
L 5113 0 
L 5113 2094 
Q 5113 2597 4934 2840 
Q 4756 3084 4391 3084 
Q 3944 3084 3684 2787 
Q 3425 2491 3425 1978 
L 3425 0 
L 2847 0 
L 2847 2094 
Q 2847 2600 2669 2842 
Q 2491 3084 2119 3084 
Q 1678 3084 1418 2786 
Q 1159 2488 1159 1978 
L 1159 0 
L 581 0 
L 581 3500 
L 1159 3500 
L 1159 2956 
Q 1356 3278 1631 3431 
Q 1906 3584 2284 3584 
Q 2666 3584 2933 3390 
Q 3200 3197 3328 2828 
z
" transform="scale(0.015625)"/>
        <path id="DejaVuSans-45" d="M 3116 1747 
Q 3116 2381 2855 2742 
Q 2594 3103 2138 3103 
Q 1681 3103 1420 2742 
Q 1159 2381 1159 1747 
Q 1159 1113 1420 752 
Q 1681 391 2138 391 
Q 2594 391 2855 752 
Q 3116 1113 3116 1747 
z
M 1159 2969 
Q 1341 3281 1617 3432 
Q 1894 3584 2278 3584 
Q 2916 3584 3314 3078 
Q 3713 2572 3713 1747 
Q 3713 922 3314 415 
Q 2916 -91 2278 -91 
Q 1894 -91 1617 61 
Q 1341 213 1159 525 
L 1159 0 
L 581 0 
L 581 4863 
L 1159 4863 
L 1159 2969 
z
" transform="scale(0.015625)"/>
       </defs>
       <use xlink:href="#DejaVuSans-2a"/>
       <use xlink:href="#DejaVuSans-44" transform="translate(77.484375 0)"/>
       <use xlink:href="#DejaVuSans-50" transform="translate(138.765625 0)"/>
       <use xlink:href="#DejaVuSans-45" transform="translate(236.171875 0)"/>
       <use xlink:href="#DejaVuSans-48" transform="translate(299.65625 0)"/>
      </g>
     </g>
    </g>
    <g id="xtick_4">
     <g id="line2d_4">
      <g>
       <use xlink:href="#m02d1dc51f5" x="500.050781" y="355.717969" style="fill: #8b949e; stroke: #8b949e; stroke-width: 0.8"/>
      </g>
     </g>
     <g id="text_4">
      <!-- Petto -->
      <g style="fill: #8b949e" transform="translate(487.157812 370.315625) scale(0.1 -0.1)">
       <defs>
        <path id="DejaVuSans-33" d="M 1259 4147 
L 1259 2394 
L 2053 2394 
Q 2494 2394 2734 2622 
Q 2975 2850 2975 3272 
Q 2975 3691 2734 3919 
Q 2494 4147 2053 4147 
L 1259 4147 
z
M 628 4666 
L 2053 4666 
Q 2838 4666 3239 4311 
Q 3641 3956 3641 3272 
Q 3641 2581 3239 2228 
Q 2838 1875 2053 1875 
L 1259 1875 
L 1259 0 
L 628 0 
L 628 4666 
z
" transform="scale(0.015625)"/>
       </defs>
       <use xlink:href="#DejaVuSans-33"/>
       <use xlink:href="#DejaVuSans-48" transform="translate(56.734375 0)"/>
       <use xlink:href="#DejaVuSans-57" transform="translate(118.265625 0)"/>
       <use xlink:href="#DejaVuSans-57" transform="translate(157.46875 0)"/>
       <use xlink:href="#DejaVuSans-52" transform="translate(196.671875 0)"/>
      </g>
     </g>
    </g>
    <g id="xtick_5">
     <g id="line2d_5">
      <g>
       <use xlink:href="#m02d1dc51f5" x="623.025988" y="355.717969" style="fill: #8b949e; stroke: #8b949e; stroke-width: 0.8"/>
      </g>
     </g>
     <g id="text_5">
      <!-- Schiena -->
      <g style="fill: #8b949e" transform="translate(603.235363 370.316406) scale(0.1 -0.1)">
       <defs>
        <path id="DejaVuSans-36" d="M 3425 4513 
L 3425 3897 
Q 3066 4069 2747 4153 
Q 2428 4238 2131 4238 
Q 1616 4238 1336 4038 
Q 1056 3838 1056 3469 
Q 1056 3159 1242 3001 
Q 1428 2844 1947 2747 
L 2328 2669 
Q 3034 2534 3370 2195 
Q 3706 1856 3706 1288 
Q 3706 609 3251 259 
Q 2797 -91 1919 -91 
Q 1588 -91 1214 -16 
Q 841 59 441 206 
L 441 856 
Q 825 641 1194 531 
Q 1563 422 1919 422 
Q 2459 422 2753 634 
Q 3047 847 3047 1241 
Q 3047 1584 2836 1778 
Q 2625 1972 2144 2069 
L 1759 2144 
Q 1053 2284 737 2584 
Q 422 2884 422 3419 
Q 422 4038 858 4394 
Q 1294 4750 2059 4750 
Q 2388 4750 2728 4690 
Q 3069 4631 3425 4513 
z
" transform="scale(0.015625)"/>
        <path id="DejaVuSans-4b" d="M 3513 2113 
L 3513 0 
L 2938 0 
L 2938 2094 
Q 2938 2591 2744 2837 
Q 2550 3084 2163 3084 
Q 1697 3084 1428 2787 
Q 1159 2491 1159 1978 
L 1159 0 
L 581 0 
L 581 4863 
L 1159 4863 
L 1159 2956 
Q 1366 3272 1645 3428 
Q 1925 3584 2291 3584 
Q 2894 3584 3203 3211 
Q 3513 2838 3513 2113 
z
" transform="scale(0.015625)"/>
        <path id="DejaVuSans-51" d="M 3513 2113 
L 3513 0 
L 2938 0 
L 2938 2094 
Q 2938 2591 2744 2837 
Q 2550 3084 2163 3084 
Q 1697 3084 1428 2787 
Q 1159 2491 1159 1978 
L 1159 0 
L 581 0 
L 581 3500 
L 1159 3500 
L 1159 2956 
Q 1366 3272 1645 3428 
Q 1925 3584 2291 3584 
Q 2894 3584 3203 3211 
Q 3513 2838 3513 2113 
z
" transform="scale(0.015625)"/>
       </defs>
       <use xlink:href="#DejaVuSans-36"/>
       <use xlink:href="#DejaVuSans-46" transform="translate(63.484375 0)"/>
       <use xlink:href="#DejaVuSans-4b" transform="translate(118.46875 0)"/>
       <use xlink:href="#DejaVuSans-4c" transform="translate(181.84375 0)"/>
       <use xlink:href="#DejaVuSans-48" transform="translate(209.625 0)"/>
       <use xlink:href="#DejaVuSans-51" transform="translate(271.15625 0)"/>
       <use xlink:href="#DejaVuSans-44" transform="translate(334.53125 0)"/>
      </g>
     </g>
    </g>
    <g id="xtick_6">
     <g id="line2d_6">
      <g>
       <use xlink:href="#m02d1dc51f5" x="746.001194" y="355.717969" style="fill: #8b949e; stroke: #8b949e; stroke-width: 0.8"/>
      </g>
     </g>
     <g id="text_6">
      <!-- Spalle -->
      <g style="fill: #8b949e" transform="translate(730.734007 370.316406) scale(0.1 -0.1)">
       <defs>
        <path id="DejaVuSans-4f" d="M 603 4863 
L 1178 4863 
L 1178 0 
L 603 0 
L 603 4863 
z
" transform="scale(0.015625)"/>
       </defs>
       <use xlink:href="#DejaVuSans-36"/>
       <use xlink:href="#DejaVuSans-53" transform="translate(63.484375 0)"/>
       <use xlink:href="#DejaVuSans-44" transform="translate(126.96875 0)"/>
       <use xlink:href="#DejaVuSans-4f" transform="translate(188.25 0)"/>
       <use xlink:href="#DejaVuSans-4f" transform="translate(216.03125 0)"/>
       <use xlink:href="#DejaVuSans-48" transform="translate(243.8125 0)"/>
      </g>
     </g>
    </g>
    <g id="xtick_7">
     <g id="line2d_7">
      <g>
       <use xlink:href="#m02d1dc51f5" x="868.976401" y="355.717969" style="fill: #8b949e; stroke: #8b949e; stroke-width: 0.8"/>
      </g>
     </g>
     <g id="text_7">
      <!-- Tricipiti -->
      <g style="fill: #8b949e" transform="translate(851.162339 370.316406) scale(0.1 -0.1)">
       <defs>
        <path id="DejaVuSans-37" d="M -19 4666 
L 3928 4666 
L 3928 4134 
L 2272 4134 
L 2272 0 
L 1638 0 
L 1638 4134 
L -19 4134 
L -19 4666 
z
" transform="scale(0.015625)"/>
       </defs>
       <use xlink:href="#DejaVuSans-37"/>
       <use xlink:href="#DejaVuSans-55" transform="translate(46.375 0)"/>
       <use xlink:href="#DejaVuSans-4c" transform="translate(87.484375 0)"/>
       <use xlink:href="#DejaVuSans-46" transform="translate(115.265625 0)"/>
       <use xlink:href="#DejaVuSans-4c" transform="translate(170.25 0)"/>
       <use xlink:href="#DejaVuSans-53" transform="translate(198.03125 0)"/>
       <use xlink:href="#DejaVuSans-4c" transform="translate(261.515625 0)"/>
       <use xlink:href="#DejaVuSans-57" transform="translate(289.296875 0)"/>
       <use xlink:href="#DejaVuSans-4c" transform="translate(328.5 0)"/>
      </g>
     </g>
    </g>
    <g id="text_8">
     <!-- Muscle Group -->
     <g style="fill: #191919" transform="translate(465.9375 384.317187) scale(0.1 -0.1)">
      <defs>
       <path id="DejaVuSans-30" d="M 628 4666 
L 1569 4666 
L 2759 1491 
L 3956 4666 
L 4897 4666 
L 4897 0 
L 4281 0 
L 4281 4097 
L 3078 897 
L 2444 897 
L 1241 4097 
L 1241 0 
L 628 0 
L 628 4666 
z
" transform="scale(0.015625)"/>
       <path id="DejaVuSans-58" d="M 544 1381 
L 544 3500 
L 1119 3500 
L 1119 1403 
Q 1119 906 1312 657 
Q 1506 409 1894 409 
Q 2359 409 2629 706 
Q 2900 1003 2900 1516 
L 2900 3500 
L 3475 3500 
L 3475 0 
L 2900 0 
L 2900 538 
Q 2691 219 2414 64 
Q 2138 -91 1772 -91 
Q 1169 -91 856 284 
Q 544 659 544 1381 
z
M 1991 3584 
L 1991 3584 
z
" transform="scale(0.015625)"/>
       <path id="DejaVuSans-56" d="M 2834 3397 
L 2834 2853 
Q 2591 2978 2328 3040 
Q 2066 3103 1784 3103 
Q 1356 3103 1142 2972 
Q 928 2841 928 2578 
Q 928 2378 1081 2264 
Q 1234 2150 1697 2047 
L 1894 2003 
Q 2506 1872 2764 1633 
Q 3022 1394 3022 966 
Q 3022 478 2636 193 
Q 2250 -91 1575 -91 
Q 1294 -91 989 -36 
Q 684 19 347 128 
L 347 722 
Q 666 556 975 473 
Q 1284 391 1588 391 
Q 1994 391 2212 530 
Q 2431 669 2431 922 
Q 2431 1156 2273 1281 
Q 2116 1406 1581 1522 
L 1381 1569 
Q 847 1681 609 1914 
Q 372 2147 372 2553 
Q 372 3047 722 3315 
Q 1072 3584 1716 3584 
Q 2034 3584 2315 3537 
Q 2597 3491 2834 3397 
z
" transform="scale(0.015625)"/>
       <path id="DejaVuSans-3" transform="scale(0.015625)"/>
      </defs>
      <use xlink:href="#DejaVuSans-30"/>
      <use xlink:href="#DejaVuSans-58" transform="translate(86.28125 0)"/>
      <use xlink:href="#DejaVuSans-56" transform="translate(149.65625 0)"/>
      <use xlink:href="#DejaVuSans-46" transform="translate(201.75 0)"/>
      <use xlink:href="#DejaVuSans-4f" transform="translate(256.734375 0)"/>
      <use xlink:href="#DejaVuSans-48" transform="translate(284.515625 0)"/>
      <use xlink:href="#DejaVuSans-3" transform="translate(346.046875 0)"/>
      <use xlink:href="#DejaVuSans-2a" transform="translate(377.828125 0)"/>
      <use xlink:href="#DejaVuSans-55" transform="translate(455.3125 0)"/>
      <use xlink:href="#DejaVuSans-52" transform="translate(494.21875 0)"/>
      <use xlink:href="#DejaVuSans-58" transform="translate(555.40625 0)"/>
      <use xlink:href="#DejaVuSans-53" transform="translate(618.78125 0)"/>
     </g>
    </g>
   </g>
   <g id="matplotlib.axis_2">
    <g id="ytick_1">
     <g id="line2d_8">
      <defs>
       <path id="m2291caeb3b" d="M 0 0 
L -3.5 0 
" style="stroke: #8b949e; stroke-width: 0.8"/>
      </defs>
      <g>
       <use xlink:href="#m2291caeb3b" x="53.650781" y="355.717969" style="fill: #8b949e; stroke: #8b949e; stroke-width: 0.8"/>
      </g>
     </g>
     <g id="text_9">
      <!-- 0 -->
      <g style="fill: #8b949e" transform="translate(40.288281 359.516797) scale(0.1 -0.1)">
       <defs>
        <path id="DejaVuSans-13" d="M 2034 4250 
Q 1547 4250 1301 3770 
Q 1056 3291 1056 2328 
Q 1056 1369 1301 889 
Q 1547 409 2034 409 
Q 2525 409 2770 889 
Q 3016 1369 3016 2328 
Q 3016 3291 2770 3770 
Q 2525 4250 2034 4250 
z
M 2034 4750 
Q 2819 4750 3233 4129 
Q 3647 3509 3647 2328 
Q 3647 1150 3233 529 
Q 2819 -91 2034 -91 
Q 1250 -91 836 529 
Q 422 1150 422 2328 
Q 422 3509 836 4129 
Q 1250 4750 2034 4750 
z
" transform="scale(0.015625)"/>
       </defs>
       <use xlink:href="#DejaVuSans-13"/>
      </g>
     </g>
    </g>
    <g id="ytick_2">
     <g id="line2d_9">
      <g>
       <use xlink:href="#m2291caeb3b" x="53.650781" y="303.231314" style="fill: #8b949e; stroke: #8b949e; stroke-width: 0.8"/>
      </g>
     </g>
     <g id="text_10">
      <!-- 1000 -->
      <g style="fill: #8b949e" transform="translate(21.200781 307.030142) scale(0.1 -0.1)">
       <defs>
        <path id="DejaVuSans-14" d="M 794 531 
L 1825 531 
L 1825 4091 
L 703 3866 
L 703 4441 
L 1819 4666 
L 2450 4666 
L 2450 531 
L 3481 531 
L 3481 0 
L 794 0 
L 794 531 
z
" transform="scale(0.015625)"/>
       </defs>
       <use xlink:href="#DejaVuSans-14"/>
       <use xlink:href="#DejaVuSans-13" transform="translate(63.625 0)"/>
       <use xlink:href="#DejaVuSans-13" transform="translate(127.25 0)"/>
       <use xlink:href="#DejaVuSans-13" transform="translate(190.875 0)"/>
      </g>
     </g>
    </g>
    <g id="ytick_3">
     <g id="line2d_10">
      <g>
       <use xlink:href="#m2291caeb3b" x="53.650781" y="250.744659" style="fill: #8b949e; stroke: #8b949e; stroke-width: 0.8"/>
      </g>
     </g>
     <g id="text_11">
      <!-- 2000 -->
      <g style="fill: #8b949e" transform="translate(21.200781 254.543488) scale(0.1 -0.1)">
       <defs>
        <path id="DejaVuSans-15" d="M 1228 531 
L 3431 531 
L 3431 0 
L 469 0 
L 469 531 
Q 828 903 1448 1529 
Q 2069 2156 2228 2338 
Q 2531 2678 2651 2914 
Q 2772 3150 2772 3378 
Q 2772 3750 2511 3984 
Q 2250 4219 1831 4219 
Q 1534 4219 1204 4116 
Q 875 4013 500 3803 
L 500 4441 
Q 881 4594 1212 4672 
Q 1544 4750 1819 4750 
Q 2544 4750 2975 4387 
Q 3406 4025 3406 3419 
Q 3406 3131 3298 2873 
Q 3191 2616 2906 2266 
Q 2828 2175 2409 1742 
Q 1991 1309 1228 531 
z
" transform="scale(0.015625)"/>
       </defs>
       <use xlink:href="#DejaVuSans-15"/>
       <use xlink:href="#DejaVuSans-13" transform="translate(63.625 0)"/>
       <use xlink:href="#DejaVuSans-13" transform="translate(127.25 0)"/>
       <use xlink:href="#DejaVuSans-13" transform="translate(190.875 0)"/>
      </g>
     </g>
    </g>
    <g id="ytick_4">
     <g id="line2d_11">
      <g>
       <use xlink:href="#m2291caeb3b" x="53.650781" y="198.258005" style="fill: #8b949e; stroke: #8b949e; stroke-width: 0.8"/>
      </g>
     </g>
     <g id="text_12">
      <!-- 3000 -->
      <g style="fill: #8b949e" transform="translate(21.200781 202.056833) scale(0.1 -0.1)">
       <defs>
        <path id="DejaVuSans-16" d="M 2597 2516 
Q 3050 2419 3304 2112 
Q 3559 1806 3559 1356 
Q 3559 666 3084 287 
Q 2609 -91 1734 -91 
Q 1441 -91 1130 -33 
Q 819 25 488 141 
L 488 750 
Q 750 597 1062 519 
Q 1375 441 1716 441 
Q 2309 441 2620 675 
Q 2931 909 2931 1356 
Q 2931 1769 2642 2001 
Q 2353 2234 1838 2234 
L 1294 2234 
L 1294 2753 
L 1863 2753 
Q 2328 2753 2575 2939 
Q 2822 3125 2822 3475 
Q 2822 3834 2567 4026 
Q 2313 4219 1838 4219 
Q 1578 4219 1281 4162 
Q 984 4106 628 3988 
L 628 4550 
Q 988 4650 1302 4700 
Q 1616 4750 1894 4750 
Q 2613 4750 3031 4423 
Q 3450 4097 3450 3541 
Q 3450 3153 3228 2886 
Q 3006 2619 2597 2516 
z
" transform="scale(0.015625)"/>
       </defs>
       <use xlink:href="#DejaVuSans-16"/>
       <use xlink:href="#DejaVuSans-13" transform="translate(63.625 0)"/>
       <use xlink:href="#DejaVuSans-13" transform="translate(127.25 0)"/>
       <use xlink:href="#DejaVuSans-13" transform="translate(190.875 0)"/>
      </g>
     </g>
    </g>
    <g id="ytick_5">
     <g id="line2d_12">
      <g>
       <use xlink:href="#m2291caeb3b" x="53.650781" y="145.77135" style="fill: #8b949e; stroke: #8b949e; stroke-width: 0.8"/>
      </g>
     </g>
     <g id="text_13">
      <!-- 4000 -->
      <g style="fill: #8b949e" transform="translate(21.200781 149.570178) scale(0.1 -0.1)">
       <defs>
        <path id="DejaVuSans-17" d="M 2419 4116 
L 825 1625 
L 2419 1625 
L 2419 4116 
z
M 2253 4666 
L 3047 4666 
L 3047 1625 
L 3713 1625 
L 3713 1100 
L 3047 1100 
L 3047 0 
L 2419 0 
L 2419 1100 
L 313 1100 
L 313 1709 
L 2253 4666 
z
" transform="scale(0.015625)"/>
       </defs>
       <use xlink:href="#DejaVuSans-17"/>
       <use xlink:href="#DejaVuSans-13" transform="translate(63.625 0)"/>
       <use xlink:href="#DejaVuSans-13" transform="translate(127.25 0)"/>
       <use xlink:href="#DejaVuSans-13" transform="translate(190.875 0)"/>
      </g>
     </g>
    </g>
    <g id="ytick_6">
     <g id="line2d_13">
      <g>
       <use xlink:href="#m2291caeb3b" x="53.650781" y="93.284695" style="fill: #8b949e; stroke: #8b949e; stroke-width: 0.8"/>
      </g>
     </g>
     <g id="text_14">
      <!-- 5000 -->
      <g style="fill: #8b949e" transform="translate(21.200781 97.083524) scale(0.1 -0.1)">
       <defs>
        <path id="DejaVuSans-18" d="M 691 4666 
L 3169 4666 
L 3169 4134 
L 1269 4134 
L 1269 2991 
Q 1406 3038 1543 3061 
Q 1681 3084 1819 3084 
Q 2600 3084 3056 2656 
Q 3513 2228 3513 1497 
Q 3513 744 3044 326 
Q 2575 -91 1722 -91 
Q 1428 -91 1123 -41 
Q 819 9 494 109 
L 494 744 
Q 775 591 1075 516 
Q 1375 441 1709 441 
Q 2250 441 2565 725 
Q 2881 1009 2881 1497 
Q 2881 1984 2565 2268 
Q 2250 2553 1709 2553 
Q 1456 2553 1204 2497 
Q 953 2441 691 2322 
L 691 4666 
z
" transform="scale(0.015625)"/>
       </defs>
       <use xlink:href="#DejaVuSans-18"/>
       <use xlink:href="#DejaVuSans-13" transform="translate(63.625 0)"/>
       <use xlink:href="#DejaVuSans-13" transform="translate(127.25 0)"/>
       <use xlink:href="#DejaVuSans-13" transform="translate(190.875 0)"/>
      </g>
     </g>
    </g>
    <g id="ytick_7">
     <g id="line2d_14">
      <g>
       <use xlink:href="#m2291caeb3b" x="53.650781" y="40.798041" style="fill: #8b949e; stroke: #8b949e; stroke-width: 0.8"/>
      </g>
     </g>
     <g id="text_15">
      <!-- 6000 -->
      <g style="fill: #8b949e" transform="translate(21.200781 44.596869) scale(0.1 -0.1)">
       <defs>
        <path id="DejaVuSans-19" d="M 2113 2584 
Q 1688 2584 1439 2293 
Q 1191 2003 1191 1497 
Q 1191 994 1439 701 
Q 1688 409 2113 409 
Q 2538 409 2786 701 
Q 3034 994 3034 1497 
Q 3034 2003 2786 2293 
Q 2538 2584 2113 2584 
z
M 3366 4563 
L 3366 3988 
Q 3128 4100 2886 4159 
Q 2644 4219 2406 4219 
Q 1781 4219 1451 3797 
Q 1122 3375 1075 2522 
Q 1259 2794 1537 2939 
Q 1816 3084 2150 3084 
Q 2853 3084 3261 2657 
Q 3669 2231 3669 1497 
Q 3669 778 3244 343 
Q 2819 -91 2113 -91 
Q 1303 -91 875 529 
Q 447 1150 447 2328 
Q 447 3434 972 4092 
Q 1497 4750 2381 4750 
Q 2619 4750 2861 4703 
Q 3103 4656 3366 4563 
z
" transform="scale(0.015625)"/>
       </defs>
       <use xlink:href="#DejaVuSans-19"/>
       <use xlink:href="#DejaVuSans-13" transform="translate(63.625 0)"/>
       <use xlink:href="#DejaVuSans-13" transform="translate(127.25 0)"/>
       <use xlink:href="#DejaVuSans-13" transform="translate(190.875 0)"/>
      </g>
     </g>
    </g>
    <g id="text_16">
     <!-- Volume -->
     <g style="fill: #8b949e" transform="translate(14.798438 207.994062) rotate(-90) scale(0.1 -0.1)">
      <defs>
       <path id="DejaVuSans-39" d="M 1831 0 
L 50 4666 
L 709 4666 
L 2188 738 
L 3669 4666 
L 4325 4666 
L 2547 0 
L 1831 0 
z
" transform="scale(0.015625)"/>
      </defs>
      <use xlink:href="#DejaVuSans-39"/>
      <use xlink:href="#DejaVuSans-52" transform="translate(60.640625 0)"/>
      <use xlink:href="#DejaVuSans-4f" transform="translate(121.828125 0)"/>
      <use xlink:href="#DejaVuSans-58" transform="translate(149.609375 0)"/>
      <use xlink:href="#DejaVuSans-50" transform="translate(212.984375 0)"/>
      <use xlink:href="#DejaVuSans-48" transform="translate(310.390625 0)"/>
     </g>
    </g>
   </g>
   <g id="patch_15">
    <path d="M 53.650781 355.717969 
L 53.650781 23.077969 
" style="fill: none; stroke: #191919; stroke-width: 0.8; stroke-linejoin: miter; stroke-linecap: square"/>
   </g>
   <g id="patch_16">
    <path d="M 946.450781 355.717969 
L 946.450781 23.077969 
" style="fill: none; stroke: #191919; stroke-width: 0.8; stroke-linejoin: miter; stroke-linecap: square"/>
   </g>
   <g id="patch_17">
    <path d="M 53.650781 355.717969 
L 946.450781 355.717969 
" style="fill: none; stroke: #191919; stroke-width: 0.8; stroke-linejoin: miter; stroke-linecap: square"/>
   </g>
   <g id="patch_18">
    <path d="M 53.650781 23.077969 
L 946.450781 23.077969 
" style="fill: none; stroke: #191919; stroke-width: 0.8; stroke-linejoin: miter; stroke-linecap: square"/>
   </g>
   <g id="text_17">
    <!-- Bicipiti -->
    <g style="fill: #ffffff" transform="translate(116.425161 315.441513) scale(0.075 -0.075)">
     <defs>
      <path id="DejaVuSans-Bold-25" d="M 2456 2859 
Q 2741 2859 2887 2984 
Q 3034 3109 3034 3353 
Q 3034 3594 2887 3720 
Q 2741 3847 2456 3847 
L 1791 3847 
L 1791 2859 
L 2456 2859 
z
M 2497 819 
Q 2859 819 3042 972 
Q 3225 1125 3225 1434 
Q 3225 1738 3044 1889 
Q 2863 2041 2497 2041 
L 1791 2041 
L 1791 819 
L 2497 819 
z
M 3616 2497 
Q 4003 2384 4215 2081 
Q 4428 1778 4428 1338 
Q 4428 663 3972 331 
Q 3516 0 2584 0 
L 588 0 
L 588 4666 
L 2394 4666 
Q 3366 4666 3802 4372 
Q 4238 4078 4238 3431 
Q 4238 3091 4078 2852 
Q 3919 2613 3616 2497 
z
" transform="scale(0.015625)"/>
      <path id="DejaVuSans-Bold-4c" d="M 538 3500 
L 1656 3500 
L 1656 0 
L 538 0 
L 538 3500 
z
M 538 4863 
L 1656 4863 
L 1656 3950 
L 538 3950 
L 538 4863 
z
" transform="scale(0.015625)"/>
      <path id="DejaVuSans-Bold-46" d="M 3366 3391 
L 3366 2478 
Q 3138 2634 2908 2709 
Q 2678 2784 2431 2784 
Q 1963 2784 1702 2511 
Q 1441 2238 1441 1747 
Q 1441 1256 1702 982 
Q 1963 709 2431 709 
Q 2694 709 2930 787 
Q 3166 866 3366 1019 
L 3366 103 
Q 3103 6 2833 -42 
Q 2563 -91 2291 -91 
Q 1344 -91 809 395 
Q 275 881 275 1747 
Q 275 2613 809 3098 
Q 1344 3584 2291 3584 
Q 2566 3584 2833 3536 
Q 3100 3488 3366 3391 
z
" transform="scale(0.015625)"/>
      <path id="DejaVuSans-Bold-53" d="M 1656 506 
L 1656 -1331 
L 538 -1331 
L 538 3500 
L 1656 3500 
L 1656 2988 
Q 1888 3294 2169 3439 
Q 2450 3584 2816 3584 
Q 3463 3584 3878 3070 
Q 4294 2556 4294 1747 
Q 4294 938 3878 423 
Q 3463 -91 2816 -91 
Q 2450 -91 2169 54 
Q 1888 200 1656 506 
z
M 2400 2772 
Q 2041 2772 1848 2508 
Q 1656 2244 1656 1747 
Q 1656 1250 1848 986 
Q 2041 722 2400 722 
Q 2759 722 2948 984 
Q 3138 1247 3138 1747 
Q 3138 2247 2948 2509 
Q 2759 2772 2400 2772 
z
" transform="scale(0.015625)"/>
      <path id="DejaVuSans-Bold-57" d="M 1759 4494 
L 1759 3500 
L 2913 3500 
L 2913 2700 
L 1759 2700 
L 1759 1216 
Q 1759 972 1856 886 
Q 1953 800 2241 800 
L 2816 800 
L 2816 0 
L 1856 0 
Q 1194 0 917 276 
Q 641 553 641 1216 
L 641 2700 
L 84 2700 
L 84 3500 
L 641 3500 
L 641 4494 
L 1759 4494 
z
" transform="scale(0.015625)"/>
     </defs>
     <use xlink:href="#DejaVuSans-Bold-25"/>
     <use xlink:href="#DejaVuSans-Bold-4c" transform="translate(76.21875 0)"/>
     <use xlink:href="#DejaVuSans-Bold-46" transform="translate(110.5 0)"/>
     <use xlink:href="#DejaVuSans-Bold-4c" transform="translate(169.78125 0)"/>
     <use xlink:href="#DejaVuSans-Bold-53" transform="translate(204.0625 0)"/>
     <use xlink:href="#DejaVuSans-Bold-4c" transform="translate(275.640625 0)"/>
     <use xlink:href="#DejaVuSans-Bold-57" transform="translate(309.921875 0)"/>
     <use xlink:href="#DejaVuSans-Bold-4c" transform="translate(357.71875 0)"/>
    </g>
    <!-- 79% -->
    <g style="fill: #ffffff" transform="translate(122.149185 324.442978) scale(0.075 -0.075)">
     <defs>
      <path id="DejaVuSans-Bold-1a" d="M 428 4666 
L 3944 4666 
L 3944 3988 
L 2125 0 
L 953 0 
L 2675 3781 
L 428 3781 
L 428 4666 
z
" transform="scale(0.015625)"/>
      <path id="DejaVuSans-Bold-1c" d="M 641 103 
L 641 966 
Q 928 831 1190 764 
Q 1453 697 1709 697 
Q 2247 697 2547 995 
Q 2847 1294 2900 1881 
Q 2688 1725 2447 1647 
Q 2206 1569 1925 1569 
Q 1209 1569 770 1986 
Q 331 2403 331 3084 
Q 331 3838 820 4291 
Q 1309 4744 2131 4744 
Q 3044 4744 3544 4128 
Q 4044 3513 4044 2388 
Q 4044 1231 3459 570 
Q 2875 -91 1856 -91 
Q 1528 -91 1228 -42 
Q 928 6 641 103 
z
M 2125 2350 
Q 2441 2350 2600 2554 
Q 2759 2759 2759 3169 
Q 2759 3575 2600 3781 
Q 2441 3988 2125 3988 
Q 1809 3988 1650 3781 
Q 1491 3575 1491 3169 
Q 1491 2759 1650 2554 
Q 1809 2350 2125 2350 
z
" transform="scale(0.015625)"/>
      <path id="DejaVuSans-Bold-8" d="M 4959 1925 
Q 4738 1925 4616 1733 
Q 4494 1541 4494 1184 
Q 4494 825 4614 633 
Q 4734 441 4959 441 
Q 5184 441 5303 633 
Q 5422 825 5422 1184 
Q 5422 1541 5301 1733 
Q 5181 1925 4959 1925 
z
M 4959 2450 
Q 5541 2450 5875 2112 
Q 6209 1775 6209 1184 
Q 6209 594 5875 251 
Q 5541 -91 4959 -91 
Q 4378 -91 4042 251 
Q 3706 594 3706 1184 
Q 3706 1772 4042 2111 
Q 4378 2450 4959 2450 
z
M 2094 -91 
L 1403 -91 
L 4319 4750 
L 5013 4750 
L 2094 -91 
z
M 1453 4750 
Q 2034 4750 2367 4411 
Q 2700 4072 2700 3481 
Q 2700 2891 2367 2550 
Q 2034 2209 1453 2209 
Q 872 2209 539 2550 
Q 206 2891 206 3481 
Q 206 4072 539 4411 
Q 872 4750 1453 4750 
z
M 1453 4225 
Q 1228 4225 1106 4031 
Q 984 3838 984 3481 
Q 984 3122 1106 2926 
Q 1228 2731 1453 2731 
Q 1678 2731 1798 2926 
Q 1919 3122 1919 3481 
Q 1919 3838 1797 4031 
Q 1675 4225 1453 4225 
z
" transform="scale(0.015625)"/>
     </defs>
     <use xlink:href="#DejaVuSans-Bold-1a"/>
     <use xlink:href="#DejaVuSans-Bold-1c" transform="translate(69.578125 0)"/>
     <use xlink:href="#DejaVuSans-Bold-8" transform="translate(139.15625 0)"/>
    </g>
   </g>
   <g id="text_18">
    <!-- Brachiale -->
    <g style="fill: #ffffff" transform="translate(111.349185 267.96261) scale(0.075 -0.075)">
     <defs>
      <path id="DejaVuSans-Bold-55" d="M 3138 2547 
Q 2991 2616 2845 2648 
Q 2700 2681 2553 2681 
Q 2122 2681 1889 2404 
Q 1656 2128 1656 1613 
L 1656 0 
L 538 0 
L 538 3500 
L 1656 3500 
L 1656 2925 
Q 1872 3269 2151 3426 
Q 2431 3584 2822 3584 
Q 2878 3584 2943 3579 
Q 3009 3575 3134 3559 
L 3138 2547 
z
" transform="scale(0.015625)"/>
      <path id="DejaVuSans-Bold-44" d="M 2106 1575 
Q 1756 1575 1579 1456 
Q 1403 1338 1403 1106 
Q 1403 894 1545 773 
Q 1688 653 1941 653 
Q 2256 653 2472 879 
Q 2688 1106 2688 1447 
L 2688 1575 
L 2106 1575 
z
M 3816 1997 
L 3816 0 
L 2688 0 
L 2688 519 
Q 2463 200 2181 54 
Q 1900 -91 1497 -91 
Q 953 -91 614 226 
Q 275 544 275 1050 
Q 275 1666 698 1953 
Q 1122 2241 2028 2241 
L 2688 2241 
L 2688 2328 
Q 2688 2594 2478 2717 
Q 2269 2841 1825 2841 
Q 1466 2841 1156 2769 
Q 847 2697 581 2553 
L 581 3406 
Q 941 3494 1303 3539 
Q 1666 3584 2028 3584 
Q 2975 3584 3395 3211 
Q 3816 2838 3816 1997 
z
" transform="scale(0.015625)"/>
      <path id="DejaVuSans-Bold-4b" d="M 4056 2131 
L 4056 0 
L 2931 0 
L 2931 347 
L 2931 1625 
Q 2931 2084 2911 2256 
Q 2891 2428 2841 2509 
Q 2775 2619 2662 2680 
Q 2550 2741 2406 2741 
Q 2056 2741 1856 2470 
Q 1656 2200 1656 1722 
L 1656 0 
L 538 0 
L 538 4863 
L 1656 4863 
L 1656 2988 
Q 1909 3294 2193 3439 
Q 2478 3584 2822 3584 
Q 3428 3584 3742 3212 
Q 4056 2841 4056 2131 
z
" transform="scale(0.015625)"/>
      <path id="DejaVuSans-Bold-4f" d="M 538 4863 
L 1656 4863 
L 1656 0 
L 538 0 
L 538 4863 
z
" transform="scale(0.015625)"/>
      <path id="DejaVuSans-Bold-48" d="M 4031 1759 
L 4031 1441 
L 1416 1441 
Q 1456 1047 1700 850 
Q 1944 653 2381 653 
Q 2734 653 3104 758 
Q 3475 863 3866 1075 
L 3866 213 
Q 3469 63 3072 -14 
Q 2675 -91 2278 -91 
Q 1328 -91 801 392 
Q 275 875 275 1747 
Q 275 2603 792 3093 
Q 1309 3584 2216 3584 
Q 3041 3584 3536 3087 
Q 4031 2591 4031 1759 
z
M 2881 2131 
Q 2881 2450 2695 2645 
Q 2509 2841 2209 2841 
Q 1884 2841 1681 2658 
Q 1478 2475 1428 2131 
L 2881 2131 
z
" transform="scale(0.015625)"/>
     </defs>
     <use xlink:href="#DejaVuSans-Bold-25"/>
     <use xlink:href="#DejaVuSans-Bold-55" transform="translate(76.21875 0)"/>
     <use xlink:href="#DejaVuSans-Bold-44" transform="translate(125.53125 0)"/>
     <use xlink:href="#DejaVuSans-Bold-46" transform="translate(193.015625 0)"/>
     <use xlink:href="#DejaVuSans-Bold-4b" transform="translate(252.296875 0)"/>
     <use xlink:href="#DejaVuSans-Bold-4c" transform="translate(323.484375 0)"/>
     <use xlink:href="#DejaVuSans-Bold-44" transform="translate(357.765625 0)"/>
     <use xlink:href="#DejaVuSans-Bold-4f" transform="translate(425.25 0)"/>
     <use xlink:href="#DejaVuSans-Bold-48" transform="translate(459.53125 0)"/>
    </g>
    <!-- 21% -->
    <g style="fill: #ffffff" transform="translate(122.149185 276.964075) scale(0.075 -0.075)">
     <defs>
      <path id="DejaVuSans-Bold-15" d="M 1844 884 
L 3897 884 
L 3897 0 
L 506 0 
L 506 884 
L 2209 2388 
Q 2438 2594 2547 2791 
Q 2656 2988 2656 3200 
Q 2656 3528 2436 3728 
Q 2216 3928 1850 3928 
Q 1569 3928 1234 3808 
Q 900 3688 519 3450 
L 519 4475 
Q 925 4609 1322 4679 
Q 1719 4750 2100 4750 
Q 2938 4750 3402 4381 
Q 3866 4013 3866 3353 
Q 3866 2972 3669 2642 
Q 3472 2313 2841 1759 
L 1844 884 
z
" transform="scale(0.015625)"/>
      <path id="DejaVuSans-Bold-14" d="M 750 831 
L 1813 831 
L 1813 3847 
L 722 3622 
L 722 4441 
L 1806 4666 
L 2950 4666 
L 2950 831 
L 4013 831 
L 4013 0 
L 750 0 
L 750 831 
z
" transform="scale(0.015625)"/>
     </defs>
     <use xlink:href="#DejaVuSans-Bold-15"/>
     <use xlink:href="#DejaVuSans-Bold-14" transform="translate(69.578125 0)"/>
     <use xlink:href="#DejaVuSans-Bold-8" transform="translate(139.15625 0)"/>
    </g>
   </g>
   <g id="text_19">
    <!-- Addominali -->
    <g style="fill: #ffffff" transform="translate(230.28904 340.611489) scale(0.075 -0.075)">
     <defs>
      <path id="DejaVuSans-Bold-24" d="M 3419 850 
L 1538 850 
L 1241 0 
L 31 0 
L 1759 4666 
L 3194 4666 
L 4922 0 
L 3713 0 
L 3419 850 
z
M 1838 1716 
L 3116 1716 
L 2478 3572 
L 1838 1716 
z
" transform="scale(0.015625)"/>
      <path id="DejaVuSans-Bold-47" d="M 2919 2988 
L 2919 4863 
L 4044 4863 
L 4044 0 
L 2919 0 
L 2919 506 
Q 2688 197 2409 53 
Q 2131 -91 1766 -91 
Q 1119 -91 703 423 
Q 288 938 288 1747 
Q 288 2556 703 3070 
Q 1119 3584 1766 3584 
Q 2128 3584 2408 3439 
Q 2688 3294 2919 2988 
z
M 2181 722 
Q 2541 722 2730 984 
Q 2919 1247 2919 1747 
Q 2919 2247 2730 2509 
Q 2541 2772 2181 2772 
Q 1825 2772 1636 2509 
Q 1447 2247 1447 1747 
Q 1447 1247 1636 984 
Q 1825 722 2181 722 
z
" transform="scale(0.015625)"/>
      <path id="DejaVuSans-Bold-52" d="M 2203 2784 
Q 1831 2784 1636 2517 
Q 1441 2250 1441 1747 
Q 1441 1244 1636 976 
Q 1831 709 2203 709 
Q 2569 709 2762 976 
Q 2956 1244 2956 1747 
Q 2956 2250 2762 2517 
Q 2569 2784 2203 2784 
z
M 2203 3584 
Q 3106 3584 3614 3096 
Q 4122 2609 4122 1747 
Q 4122 884 3614 396 
Q 3106 -91 2203 -91 
Q 1297 -91 786 396 
Q 275 884 275 1747 
Q 275 2609 786 3096 
Q 1297 3584 2203 3584 
z
" transform="scale(0.015625)"/>
      <path id="DejaVuSans-Bold-50" d="M 3781 2919 
Q 3994 3244 4286 3414 
Q 4578 3584 4928 3584 
Q 5531 3584 5847 3212 
Q 6163 2841 6163 2131 
L 6163 0 
L 5038 0 
L 5038 1825 
Q 5041 1866 5042 1909 
Q 5044 1953 5044 2034 
Q 5044 2406 4934 2573 
Q 4825 2741 4581 2741 
Q 4263 2741 4089 2478 
Q 3916 2216 3909 1719 
L 3909 0 
L 2784 0 
L 2784 1825 
Q 2784 2406 2684 2573 
Q 2584 2741 2328 2741 
Q 2006 2741 1831 2477 
Q 1656 2213 1656 1722 
L 1656 0 
L 531 0 
L 531 3500 
L 1656 3500 
L 1656 2988 
Q 1863 3284 2130 3434 
Q 2397 3584 2719 3584 
Q 3081 3584 3359 3409 
Q 3638 3234 3781 2919 
z
" transform="scale(0.015625)"/>
      <path id="DejaVuSans-Bold-51" d="M 4056 2131 
L 4056 0 
L 2931 0 
L 2931 347 
L 2931 1631 
Q 2931 2084 2911 2256 
Q 2891 2428 2841 2509 
Q 2775 2619 2662 2680 
Q 2550 2741 2406 2741 
Q 2056 2741 1856 2470 
Q 1656 2200 1656 1722 
L 1656 0 
L 538 0 
L 538 3500 
L 1656 3500 
L 1656 2988 
Q 1909 3294 2193 3439 
Q 2478 3584 2822 3584 
Q 3428 3584 3742 3212 
Q 4056 2841 4056 2131 
z
" transform="scale(0.015625)"/>
     </defs>
     <use xlink:href="#DejaVuSans-Bold-24"/>
     <use xlink:href="#DejaVuSans-Bold-47" transform="translate(77.390625 0)"/>
     <use xlink:href="#DejaVuSans-Bold-47" transform="translate(148.96875 0)"/>
     <use xlink:href="#DejaVuSans-Bold-52" transform="translate(220.546875 0)"/>
     <use xlink:href="#DejaVuSans-Bold-50" transform="translate(289.25 0)"/>
     <use xlink:href="#DejaVuSans-Bold-4c" transform="translate(393.453125 0)"/>
     <use xlink:href="#DejaVuSans-Bold-51" transform="translate(427.734375 0)"/>
     <use xlink:href="#DejaVuSans-Bold-44" transform="translate(498.921875 0)"/>
     <use xlink:href="#DejaVuSans-Bold-4f" transform="translate(566.40625 0)"/>
     <use xlink:href="#DejaVuSans-Bold-4c" transform="translate(600.6875 0)"/>
    </g>
    <!-- 100% -->
    <g style="fill: #ffffff" transform="translate(242.515212 349.612953) scale(0.075 -0.075)">
     <defs>
      <path id="DejaVuSans-Bold-13" d="M 2944 2338 
Q 2944 3213 2780 3570 
Q 2616 3928 2228 3928 
Q 1841 3928 1675 3570 
Q 1509 3213 1509 2338 
Q 1509 1453 1675 1090 
Q 1841 728 2228 728 
Q 2613 728 2778 1090 
Q 2944 1453 2944 2338 
z
M 4147 2328 
Q 4147 1169 3647 539 
Q 3147 -91 2228 -91 
Q 1306 -91 806 539 
Q 306 1169 306 2328 
Q 306 3491 806 4120 
Q 1306 4750 2228 4750 
Q 3147 4750 3647 4120 
Q 4147 3491 4147 2328 
z
" transform="scale(0.015625)"/>
     </defs>
     <use xlink:href="#DejaVuSans-Bold-14"/>
     <use xlink:href="#DejaVuSans-Bold-13" transform="translate(69.578125 0)"/>
     <use xlink:href="#DejaVuSans-Bold-13" transform="translate(139.15625 0)"/>
     <use xlink:href="#DejaVuSans-Bold-8" transform="translate(208.734375 0)"/>
    </g>
   </g>
   <g id="text_20">
    <!-- Quadricipiti -->
    <g style="fill: #ffffff" transform="translate(352.312098 307.203208) scale(0.075 -0.075)">
     <defs>
      <path id="DejaVuSans-Bold-34" d="M 2847 -84 
L 2753 -84 
Q 1600 -84 959 553 
Q 319 1191 319 2328 
Q 319 3463 958 4106 
Q 1597 4750 2719 4750 
Q 3853 4750 4486 4112 
Q 5119 3475 5119 2328 
Q 5119 1541 4783 972 
Q 4447 403 3816 116 
L 4756 -934 
L 3609 -934 
L 2847 -84 
z
M 2719 3878 
Q 2169 3878 1866 3472 
Q 1563 3066 1563 2328 
Q 1563 1578 1859 1179 
Q 2156 781 2719 781 
Q 3272 781 3575 1187 
Q 3878 1594 3878 2328 
Q 3878 3066 3575 3472 
Q 3272 3878 2719 3878 
z
" transform="scale(0.015625)"/>
      <path id="DejaVuSans-Bold-58" d="M 500 1363 
L 500 3500 
L 1625 3500 
L 1625 3150 
Q 1625 2866 1622 2436 
Q 1619 2006 1619 1863 
Q 1619 1441 1641 1255 
Q 1663 1069 1716 984 
Q 1784 875 1895 815 
Q 2006 756 2150 756 
Q 2500 756 2700 1025 
Q 2900 1294 2900 1772 
L 2900 3500 
L 4019 3500 
L 4019 0 
L 2900 0 
L 2900 506 
Q 2647 200 2364 54 
Q 2081 -91 1741 -91 
Q 1134 -91 817 281 
Q 500 653 500 1363 
z
" transform="scale(0.015625)"/>
     </defs>
     <use xlink:href="#DejaVuSans-Bold-34"/>
     <use xlink:href="#DejaVuSans-Bold-58" transform="translate(85.015625 0)"/>
     <use xlink:href="#DejaVuSans-Bold-44" transform="translate(156.203125 0)"/>
     <use xlink:href="#DejaVuSans-Bold-47" transform="translate(223.6875 0)"/>
     <use xlink:href="#DejaVuSans-Bold-55" transform="translate(295.265625 0)"/>
     <use xlink:href="#DejaVuSans-Bold-4c" transform="translate(344.578125 0)"/>
     <use xlink:href="#DejaVuSans-Bold-46" transform="translate(378.859375 0)"/>
     <use xlink:href="#DejaVuSans-Bold-4c" transform="translate(438.140625 0)"/>
     <use xlink:href="#DejaVuSans-Bold-53" transform="translate(472.421875 0)"/>
     <use xlink:href="#DejaVuSans-Bold-4c" transform="translate(544 0)"/>
     <use xlink:href="#DejaVuSans-Bold-57" transform="translate(578.28125 0)"/>
     <use xlink:href="#DejaVuSans-Bold-4c" transform="translate(626.078125 0)"/>
    </g>
    <!-- 44% -->
    <g style="fill: #ffffff" transform="translate(368.099598 316.204673) scale(0.075 -0.075)">
     <defs>
      <path id="DejaVuSans-Bold-17" d="M 2356 3675 
L 1038 1722 
L 2356 1722 
L 2356 3675 
z
M 2156 4666 
L 3494 4666 
L 3494 1722 
L 4159 1722 
L 4159 850 
L 3494 850 
L 3494 0 
L 2356 0 
L 2356 850 
L 288 850 
L 288 1881 
L 2156 4666 
z
" transform="scale(0.015625)"/>
     </defs>
     <use xlink:href="#DejaVuSans-Bold-17"/>
     <use xlink:href="#DejaVuSans-Bold-17" transform="translate(69.578125 0)"/>
     <use xlink:href="#DejaVuSans-Bold-8" transform="translate(139.15625 0)"/>
    </g>
   </g>
   <g id="text_21">
    <!-- Polpacci -->
    <g style="fill: #ffffff" transform="translate(359.518543 218.254074) scale(0.075 -0.075)">
     <defs>
      <path id="DejaVuSans-Bold-33" d="M 588 4666 
L 2584 4666 
Q 3475 4666 3951 4270 
Q 4428 3875 4428 3144 
Q 4428 2409 3951 2014 
Q 3475 1619 2584 1619 
L 1791 1619 
L 1791 0 
L 588 0 
L 588 4666 
z
M 1791 3794 
L 1791 2491 
L 2456 2491 
Q 2806 2491 2997 2661 
Q 3188 2831 3188 3144 
Q 3188 3456 2997 3625 
Q 2806 3794 2456 3794 
L 1791 3794 
z
" transform="scale(0.015625)"/>
     </defs>
     <use xlink:href="#DejaVuSans-Bold-33"/>
     <use xlink:href="#DejaVuSans-Bold-52" transform="translate(73.296875 0)"/>
     <use xlink:href="#DejaVuSans-Bold-4f" transform="translate(142 0)"/>
     <use xlink:href="#DejaVuSans-Bold-53" transform="translate(176.28125 0)"/>
     <use xlink:href="#DejaVuSans-Bold-44" transform="translate(247.859375 0)"/>
     <use xlink:href="#DejaVuSans-Bold-46" transform="translate(315.34375 0)"/>
     <use xlink:href="#DejaVuSans-Bold-46" transform="translate(374.625 0)"/>
     <use xlink:href="#DejaVuSans-Bold-4c" transform="translate(433.90625 0)"/>
    </g>
    <!-- 41% -->
    <g style="fill: #ffffff" transform="translate(368.099598 227.255539) scale(0.075 -0.075)">
     <use xlink:href="#DejaVuSans-Bold-17"/>
     <use xlink:href="#DejaVuSans-Bold-14" transform="translate(69.578125 0)"/>
     <use xlink:href="#DejaVuSans-Bold-8" transform="translate(139.15625 0)"/>
    </g>
   </g>
   <g id="text_22">
    <!-- Glutei -->
    <g style="fill: #191919" transform="translate(364.421082 165.48924) scale(0.075 -0.075)">
     <defs>
      <path id="DejaVuSans-Bold-2a" d="M 4781 347 
Q 4331 128 3847 18 
Q 3363 -91 2847 -91 
Q 1681 -91 1000 561 
Q 319 1213 319 2328 
Q 319 3456 1012 4103 
Q 1706 4750 2913 4750 
Q 3378 4750 3804 4662 
Q 4231 4575 4609 4403 
L 4609 3438 
Q 4219 3659 3833 3768 
Q 3447 3878 3059 3878 
Q 2341 3878 1952 3476 
Q 1563 3075 1563 2328 
Q 1563 1588 1938 1184 
Q 2313 781 3003 781 
Q 3191 781 3352 804 
Q 3513 828 3641 878 
L 3641 1784 
L 2906 1784 
L 2906 2591 
L 4781 2591 
L 4781 347 
z
" transform="scale(0.015625)"/>
     </defs>
     <use xlink:href="#DejaVuSans-Bold-2a"/>
     <use xlink:href="#DejaVuSans-Bold-4f" transform="translate(82.078125 0)"/>
     <use xlink:href="#DejaVuSans-Bold-58" transform="translate(116.359375 0)"/>
     <use xlink:href="#DejaVuSans-Bold-57" transform="translate(187.546875 0)"/>
     <use xlink:href="#DejaVuSans-Bold-48" transform="translate(235.34375 0)"/>
     <use xlink:href="#DejaVuSans-Bold-4c" transform="translate(303.171875 0)"/>
    </g>
    <!-- 9% -->
    <g style="fill: #191919" transform="translate(370.708778 174.490705) scale(0.075 -0.075)">
     <use xlink:href="#DejaVuSans-Bold-1c"/>
     <use xlink:href="#DejaVuSans-Bold-8" transform="translate(69.578125 0)"/>
    </g>
   </g>
   <g id="text_23">
    <!-- Flessori -->
    <g style="fill: #191919" transform="translate(360.50995 150.33057) scale(0.075 -0.075)">
     <defs>
      <path id="DejaVuSans-Bold-29" d="M 588 4666 
L 3834 4666 
L 3834 3756 
L 1791 3756 
L 1791 2888 
L 3713 2888 
L 3713 1978 
L 1791 1978 
L 1791 0 
L 588 0 
L 588 4666 
z
" transform="scale(0.015625)"/>
      <path id="DejaVuSans-Bold-56" d="M 3272 3391 
L 3272 2541 
Q 2913 2691 2578 2766 
Q 2244 2841 1947 2841 
Q 1628 2841 1473 2761 
Q 1319 2681 1319 2516 
Q 1319 2381 1436 2309 
Q 1553 2238 1856 2203 
L 2053 2175 
Q 2913 2066 3209 1816 
Q 3506 1566 3506 1031 
Q 3506 472 3093 190 
Q 2681 -91 1863 -91 
Q 1516 -91 1145 -36 
Q 775 19 384 128 
L 384 978 
Q 719 816 1070 734 
Q 1422 653 1784 653 
Q 2113 653 2278 743 
Q 2444 834 2444 1013 
Q 2444 1163 2330 1236 
Q 2216 1309 1875 1350 
L 1678 1375 
Q 931 1469 631 1722 
Q 331 1975 331 2491 
Q 331 3047 712 3315 
Q 1094 3584 1881 3584 
Q 2191 3584 2531 3537 
Q 2872 3491 3272 3391 
z
" transform="scale(0.015625)"/>
     </defs>
     <use xlink:href="#DejaVuSans-Bold-29"/>
     <use xlink:href="#DejaVuSans-Bold-4f" transform="translate(68.3125 0)"/>
     <use xlink:href="#DejaVuSans-Bold-48" transform="translate(102.59375 0)"/>
     <use xlink:href="#DejaVuSans-Bold-56" transform="translate(170.421875 0)"/>
     <use xlink:href="#DejaVuSans-Bold-56" transform="translate(229.9375 0)"/>
     <use xlink:href="#DejaVuSans-Bold-52" transform="translate(289.453125 0)"/>
     <use xlink:href="#DejaVuSans-Bold-55" transform="translate(358.15625 0)"/>
     <use xlink:href="#DejaVuSans-Bold-4c" transform="translate(407.46875 0)"/>
    </g>
    <!-- 5% -->
    <g style="fill: #191919" transform="translate(370.708778 159.332034) scale(0.075 -0.075)">
     <defs>
      <path id="DejaVuSans-Bold-18" d="M 678 4666 
L 3669 4666 
L 3669 3781 
L 1638 3781 
L 1638 3059 
Q 1775 3097 1914 3117 
Q 2053 3138 2203 3138 
Q 3056 3138 3531 2711 
Q 4006 2284 4006 1522 
Q 4006 766 3489 337 
Q 2972 -91 2053 -91 
Q 1656 -91 1267 -14 
Q 878 63 494 219 
L 494 1166 
Q 875 947 1217 837 
Q 1559 728 1863 728 
Q 2300 728 2551 942 
Q 2803 1156 2803 1522 
Q 2803 1891 2551 2103 
Q 2300 2316 1863 2316 
Q 1603 2316 1309 2248 
Q 1016 2181 678 2041 
L 678 4666 
z
" transform="scale(0.015625)"/>
     </defs>
     <use xlink:href="#DejaVuSans-Bold-18"/>
     <use xlink:href="#DejaVuSans-Bold-8" transform="translate(69.578125 0)"/>
    </g>
   </g>
   <g id="text_24">
    <!-- Pettorali -->
    <g style="fill: #ffffff" transform="translate(481.646484 336.632475) scale(0.075 -0.075)">
     <use xlink:href="#DejaVuSans-Bold-33"/>
     <use xlink:href="#DejaVuSans-Bold-48" transform="translate(73.296875 0)"/>
     <use xlink:href="#DejaVuSans-Bold-57" transform="translate(141.125 0)"/>
     <use xlink:href="#DejaVuSans-Bold-57" transform="translate(188.921875 0)"/>
     <use xlink:href="#DejaVuSans-Bold-52" transform="translate(236.71875 0)"/>
     <use xlink:href="#DejaVuSans-Bold-55" transform="translate(305.421875 0)"/>
     <use xlink:href="#DejaVuSans-Bold-44" transform="translate(354.734375 0)"/>
     <use xlink:href="#DejaVuSans-Bold-4f" transform="translate(422.21875 0)"/>
     <use xlink:href="#DejaVuSans-Bold-4c" transform="translate(456.5 0)"/>
    </g>
    <!-- 100% -->
    <g style="fill: #ffffff" transform="translate(488.465625 345.63394) scale(0.075 -0.075)">
     <use xlink:href="#DejaVuSans-Bold-14"/>
     <use xlink:href="#DejaVuSans-Bold-13" transform="translate(69.578125 0)"/>
     <use xlink:href="#DejaVuSans-Bold-13" transform="translate(139.15625 0)"/>
     <use xlink:href="#DejaVuSans-Bold-8" transform="translate(208.734375 0)"/>
    </g>
   </g>
   <g id="text_25">
    <!-- Trapezio -->
    <g style="fill: #ffffff" transform="translate(605.22755 270.719734) scale(0.075 -0.075)">
     <defs>
      <path id="DejaVuSans-Bold-37" d="M 31 4666 
L 4331 4666 
L 4331 3756 
L 2784 3756 
L 2784 0 
L 1581 0 
L 1581 3756 
L 31 3756 
L 31 4666 
z
" transform="scale(0.015625)"/>
      <path id="DejaVuSans-Bold-5d" d="M 366 3500 
L 3419 3500 
L 3419 2719 
L 1575 800 
L 3419 800 
L 3419 0 
L 288 0 
L 288 781 
L 2131 2700 
L 366 2700 
L 366 3500 
z
" transform="scale(0.015625)"/>
     </defs>
     <use xlink:href="#DejaVuSans-Bold-37"/>
     <use xlink:href="#DejaVuSans-Bold-55" transform="translate(57.234375 0)"/>
     <use xlink:href="#DejaVuSans-Bold-44" transform="translate(106.546875 0)"/>
     <use xlink:href="#DejaVuSans-Bold-53" transform="translate(174.03125 0)"/>
     <use xlink:href="#DejaVuSans-Bold-48" transform="translate(245.609375 0)"/>
     <use xlink:href="#DejaVuSans-Bold-5d" transform="translate(313.4375 0)"/>
     <use xlink:href="#DejaVuSans-Bold-4c" transform="translate(371.640625 0)"/>
     <use xlink:href="#DejaVuSans-Bold-52" transform="translate(405.921875 0)"/>
    </g>
    <!-- 52% -->
    <g style="fill: #ffffff" transform="translate(614.050011 279.721199) scale(0.075 -0.075)">
     <use xlink:href="#DejaVuSans-Bold-18"/>
     <use xlink:href="#DejaVuSans-Bold-15" transform="translate(69.578125 0)"/>
     <use xlink:href="#DejaVuSans-Bold-8" transform="translate(139.15625 0)"/>
    </g>
   </g>
   <g id="text_26">
    <!-- Dorsali -->
    <g style="fill: #ffffff" transform="translate(608.153722 112.319734) scale(0.075 -0.075)">
     <defs>
      <path id="DejaVuSans-Bold-27" d="M 1791 3756 
L 1791 909 
L 2222 909 
Q 2959 909 3348 1275 
Q 3738 1641 3738 2338 
Q 3738 3031 3350 3393 
Q 2963 3756 2222 3756 
L 1791 3756 
z
M 588 4666 
L 1856 4666 
Q 2919 4666 3439 4514 
Q 3959 4363 4331 4000 
Q 4659 3684 4818 3271 
Q 4978 2859 4978 2338 
Q 4978 1809 4818 1395 
Q 4659 981 4331 666 
Q 3956 303 3431 151 
Q 2906 0 1856 0 
L 588 0 
L 588 4666 
z
" transform="scale(0.015625)"/>
     </defs>
     <use xlink:href="#DejaVuSans-Bold-27"/>
     <use xlink:href="#DejaVuSans-Bold-52" transform="translate(83.015625 0)"/>
     <use xlink:href="#DejaVuSans-Bold-55" transform="translate(151.71875 0)"/>
     <use xlink:href="#DejaVuSans-Bold-56" transform="translate(201.03125 0)"/>
     <use xlink:href="#DejaVuSans-Bold-44" transform="translate(260.546875 0)"/>
     <use xlink:href="#DejaVuSans-Bold-4f" transform="translate(328.03125 0)"/>
     <use xlink:href="#DejaVuSans-Bold-4c" transform="translate(362.3125 0)"/>
    </g>
    <!-- 48% -->
    <g style="fill: #ffffff" transform="translate(614.050011 121.321199) scale(0.075 -0.075)">
     <defs>
      <path id="DejaVuSans-Bold-1b" d="M 2228 2088 
Q 1891 2088 1709 1903 
Q 1528 1719 1528 1375 
Q 1528 1031 1709 848 
Q 1891 666 2228 666 
Q 2563 666 2741 848 
Q 2919 1031 2919 1375 
Q 2919 1722 2741 1905 
Q 2563 2088 2228 2088 
z
M 1350 2484 
Q 925 2613 709 2878 
Q 494 3144 494 3541 
Q 494 4131 934 4440 
Q 1375 4750 2228 4750 
Q 3075 4750 3515 4442 
Q 3956 4134 3956 3541 
Q 3956 3144 3739 2878 
Q 3522 2613 3097 2484 
Q 3572 2353 3814 2058 
Q 4056 1763 4056 1313 
Q 4056 619 3595 264 
Q 3134 -91 2228 -91 
Q 1319 -91 855 264 
Q 391 619 391 1313 
Q 391 1763 633 2058 
Q 875 2353 1350 2484 
z
M 1631 3419 
Q 1631 3141 1786 2991 
Q 1941 2841 2228 2841 
Q 2509 2841 2662 2991 
Q 2816 3141 2816 3419 
Q 2816 3697 2662 3845 
Q 2509 3994 2228 3994 
Q 1941 3994 1786 3844 
Q 1631 3694 1631 3419 
z
" transform="scale(0.015625)"/>
     </defs>
     <use xlink:href="#DejaVuSans-Bold-17"/>
     <use xlink:href="#DejaVuSans-Bold-1b" transform="translate(69.578125 0)"/>
     <use xlink:href="#DejaVuSans-Bold-8" transform="translate(139.15625 0)"/>
    </g>
   </g>
   <g id="text_27">
    <!-- Deltoidi -->
    <g style="fill: #ffffff" transform="translate(729.434984 335.27832) scale(0.075 -0.075)">
     <use xlink:href="#DejaVuSans-Bold-27"/>
     <use xlink:href="#DejaVuSans-Bold-48" transform="translate(83.015625 0)"/>
     <use xlink:href="#DejaVuSans-Bold-4f" transform="translate(150.84375 0)"/>
     <use xlink:href="#DejaVuSans-Bold-57" transform="translate(185.125 0)"/>
     <use xlink:href="#DejaVuSans-Bold-52" transform="translate(232.921875 0)"/>
     <use xlink:href="#DejaVuSans-Bold-4c" transform="translate(301.625 0)"/>
     <use xlink:href="#DejaVuSans-Bold-47" transform="translate(335.90625 0)"/>
     <use xlink:href="#DejaVuSans-Bold-4c" transform="translate(407.484375 0)"/>
    </g>
    <!-- 100% -->
    <g style="fill: #ffffff" transform="translate(734.416038 344.279784) scale(0.075 -0.075)">
     <use xlink:href="#DejaVuSans-Bold-14"/>
     <use xlink:href="#DejaVuSans-Bold-13" transform="translate(69.578125 0)"/>
     <use xlink:href="#DejaVuSans-Bold-13" transform="translate(139.15625 0)"/>
     <use xlink:href="#DejaVuSans-Bold-8" transform="translate(208.734375 0)"/>
    </g>
   </g>
   <g id="text_28">
    <!-- Tricipiti -->
    <g style="fill: #ffffff" transform="translate(853.139096 333.840185) scale(0.075 -0.075)">
     <use xlink:href="#DejaVuSans-Bold-37"/>
     <use xlink:href="#DejaVuSans-Bold-55" transform="translate(57.234375 0)"/>
     <use xlink:href="#DejaVuSans-Bold-4c" transform="translate(106.546875 0)"/>
     <use xlink:href="#DejaVuSans-Bold-46" transform="translate(140.828125 0)"/>
     <use xlink:href="#DejaVuSans-Bold-4c" transform="translate(200.109375 0)"/>
     <use xlink:href="#DejaVuSans-Bold-53" transform="translate(234.390625 0)"/>
     <use xlink:href="#DejaVuSans-Bold-4c" transform="translate(305.96875 0)"/>
     <use xlink:href="#DejaVuSans-Bold-57" transform="translate(340.25 0)"/>
     <use xlink:href="#DejaVuSans-Bold-4c" transform="translate(388.046875 0)"/>
    </g>
    <!-- 100% -->
    <g style="fill: #ffffff" transform="translate(857.391245 342.84165) scale(0.075 -0.075)">
     <use xlink:href="#DejaVuSans-Bold-14"/>
     <use xlink:href="#DejaVuSans-Bold-13" transform="translate(69.578125 0)"/>
     <use xlink:href="#DejaVuSans-Bold-13" transform="translate(139.15625 0)"/>
     <use xlink:href="#DejaVuSans-Bold-8" transform="translate(208.734375 0)"/>
    </g>
   </g>
   <g id="text_29">
    <!-- Volume per Muscle Group -->
    <g style="fill: #ffffff" transform="translate(406.077031 17.077969) scale(0.13 -0.13)">
     <defs>
      <path id="DejaVuSans-Bold-39" d="M 31 4666 
L 1241 4666 
L 2478 1222 
L 3713 4666 
L 4922 4666 
L 3194 0 
L 1759 0 
L 31 4666 
z
" transform="scale(0.015625)"/>
      <path id="DejaVuSans-Bold-3" transform="scale(0.015625)"/>
      <path id="DejaVuSans-Bold-30" d="M 588 4666 
L 2119 4666 
L 3181 2169 
L 4250 4666 
L 5778 4666 
L 5778 0 
L 4641 0 
L 4641 3413 
L 3566 897 
L 2803 897 
L 1728 3413 
L 1728 0 
L 588 0 
L 588 4666 
z
" transform="scale(0.015625)"/>
     </defs>
     <use xlink:href="#DejaVuSans-Bold-39"/>
     <use xlink:href="#DejaVuSans-Bold-52" transform="translate(71.921875 0)"/>
     <use xlink:href="#DejaVuSans-Bold-4f" transform="translate(140.625 0)"/>
     <use xlink:href="#DejaVuSans-Bold-58" transform="translate(174.90625 0)"/>
     <use xlink:href="#DejaVuSans-Bold-50" transform="translate(246.09375 0)"/>
     <use xlink:href="#DejaVuSans-Bold-48" transform="translate(350.296875 0)"/>
     <use xlink:href="#DejaVuSans-Bold-3" transform="translate(418.125 0)"/>
     <use xlink:href="#DejaVuSans-Bold-53" transform="translate(452.9375 0)"/>
     <use xlink:href="#DejaVuSans-Bold-48" transform="translate(524.515625 0)"/>
     <use xlink:href="#DejaVuSans-Bold-55" transform="translate(592.34375 0)"/>
     <use xlink:href="#DejaVuSans-Bold-3" transform="translate(641.65625 0)"/>
     <use xlink:href="#DejaVuSans-Bold-30" transform="translate(676.46875 0)"/>
     <use xlink:href="#DejaVuSans-Bold-58" transform="translate(775.984375 0)"/>
     <use xlink:href="#DejaVuSans-Bold-56" transform="translate(847.171875 0)"/>
     <use xlink:href="#DejaVuSans-Bold-46" transform="translate(906.6875 0)"/>
     <use xlink:href="#DejaVuSans-Bold-4f" transform="translate(965.96875 0)"/>
     <use xlink:href="#DejaVuSans-Bold-48" transform="translate(1000.25 0)"/>
     <use xlink:href="#DejaVuSans-Bold-3" transform="translate(1068.078125 0)"/>
     <use xlink:href="#DejaVuSans-Bold-2a" transform="translate(1102.890625 0)"/>
     <use xlink:href="#DejaVuSans-Bold-55" transform="translate(1184.96875 0)"/>
     <use xlink:href="#DejaVuSans-Bold-52" transform="translate(1234.28125 0)"/>
     <use xlink:href="#DejaVuSans-Bold-58" transform="translate(1302.984375 0)"/>
     <use xlink:href="#DejaVuSans-Bold-53" transform="translate(1374.171875 0)"/>
    </g>
   </g>
  </g>
 </g>
 <defs>
  <clipPath id="p6a640e97e1">
   <rect x="53.650781" y="23.077969" width="892.8" height="332.64"/>
  </clipPath>
 </defs>
</svg>
