<?xml version="1.0" encoding="utf-8" standalone="no"?>
<!DOCTYPE svg PUBLIC "-//W3C//DTD SVG 1.1//EN"
  "http://www.w3.org/Graphics/SVG/1.1/DTD/svg11.dtd">
<svg xmlns:xlink="http://www.w3.org/1999/xlink" width="1144.558125pt" height="423.794219pt" viewBox="0 0 1144.558125 423.794219" xmlns="http://www.w3.org/2000/svg" version="1.1">
 <metadata>
  <rdf:RDF xmlns:dc="http://purl.org/dc/elements/1.1/" xmlns:cc="http://creativecommons.org/ns#" xmlns:rdf="http://www.w3.org/1999/02/22-rdf-syntax-ns#">
   <cc:Work>
    <dc:type rdf:resource="http://purl.org/dc/dcmitype/StillImage"/>
    <dc:date>2026-04-01T23:51:30.676203</dc:date>
    <dc:format>image/svg+xml</dc:format>
    <dc:creator>
     <cc:Agent>
      <dc:title>Matplotlib v3.10.8, https://matplotlib.org/</dc:title>
     </cc:Agent>
    </dc:creator>
   </cc:Work>
  </rdf:RDF>
 </metadata>
 <defs>
  <style type="text/css">*{stroke-linejoin: round; stroke-linecap: butt}</style>
 </defs>
 <g id="figure_1">
  <g id="patch_1">
   <path d="M 0 423.794219 
L 1144.558125 423.794219 
L 1144.558125 0 
L 0 0 
z
" style="fill: #191919"/>
  </g>
  <g id="axes_1">
   <g id="patch_2">
    <path d="M 53.328125 386.237969 
L 1137.358125 386.237969 
L 1137.358125 23.077969 
L 53.328125 23.077969 
z
" style="fill: #191919"/>
   </g>
   <g id="patch_3">
    <path d="M 102.602216 386.237969 
L 192.191472 386.237969 
L 192.191472 277.980236 
L 102.602216 277.980236 
z
" clip-path="url(#p66e1c62740)" style="fill: #2f9cf5"/>
   </g>
   <g id="patch_4">
    <path d="M 102.602216 277.980236 
L 192.191472 277.980236 
L 192.191472 269.710407 
L 102.602216 269.710407 
z
" clip-path="url(#p66e1c62740)" style="fill: #50acf6"/>
   </g>
   <g id="patch_5">
    <path d="M 251.917643 386.237969 
L 341.506899 386.237969 
L 341.506899 346.635219 
L 251.917643 346.635219 
z
" clip-path="url(#p66e1c62740)" style="fill: #2f9cf5"/>
   </g>
   <g id="patch_6">
    <path d="M 401.23307 386.237969 
L 490.822326 386.237969 
L 490.822326 255.704398 
L 401.23307 255.704398 
z
" clip-path="url(#p66e1c62740)" style="fill: #2f9cf5"/>
   </g>
   <g id="patch_7">
    <path d="M 401.23307 255.704398 
L 490.822326 255.704398 
L 490.822326 189.870076 
L 401.23307 189.870076 
z
" clip-path="url(#p66e1c62740)" style="fill: #50acf6"/>
   </g>
   <g id="patch_8">
    <path d="M 401.23307 189.870076 
L 490.822326 189.870076 
L 490.822326 124.603291 
L 401.23307 124.603291 
z
" clip-path="url(#p66e1c62740)" style="fill: #72bcf8"/>
   </g>
   <g id="patch_9">
    <path d="M 401.23307 124.603291 
L 490.822326 124.603291 
L 490.822326 96.631811 
L 401.23307 96.631811 
z
" clip-path="url(#p66e1c62740)" style="fill: #94ccfa"/>
   </g>
   <g id="patch_10">
    <path d="M 401.23307 96.631811 
L 490.822326 96.631811 
L 490.822326 79.659204 
L 401.23307 79.659204 
z
" clip-path="url(#p66e1c62740)" style="fill: #b6dcfb"/>
   </g>
   <g id="patch_11">
    <path d="M 550.548497 386.237969 
L 640.137753 386.237969 
L 640.137753 40.371302 
L 550.548497 40.371302 
z
" clip-path="url(#p66e1c62740)" style="fill: #2f9cf5"/>
   </g>
   <g id="patch_12">
    <path d="M 699.863924 386.237969 
L 789.45318 386.237969 
L 789.45318 57.964957 
L 699.863924 57.964957 
z
" clip-path="url(#p66e1c62740)" style="fill: #2f9cf5"/>
   </g>
   <g id="patch_13">
    <path d="M 699.863924 57.964957 
L 789.45318 57.964957 
L 789.45318 42.763066 
L 699.863924 42.763066 
z
" clip-path="url(#p66e1c62740)" style="fill: #50acf6"/>
   </g>
   <g id="patch_14">
    <path d="M 849.179351 386.237969 
L 938.768607 386.237969 
L 938.768607 273.1359 
L 849.179351 273.1359 
z
" clip-path="url(#p66e1c62740)" style="fill: #2f9cf5"/>
   </g>
   <g id="patch_15">
    <path d="M 849.179351 273.1359 
L 938.768607 273.1359 
L 938.768607 237.664821 
L 849.179351 237.664821 
z
" clip-path="url(#p66e1c62740)" style="fill: #50acf6"/>
   </g>
   <g id="patch_16">
    <path d="M 849.179351 237.664821 
L 938.768607 237.664821 
L 938.768607 217.990196 
L 849.179351 217.990196 
z
" clip-path="url(#p66e1c62740)" style="fill: #72bcf8"/>
   </g>
   <g id="patch_17">
    <path d="M 998.494778 386.237969 
L 1088.084034 386.237969 
L 1088.084034 198.930403 
L 998.494778 198.930403 
z
" clip-path="url(#p66e1c62740)" style="fill: #2f9cf5"/>
   </g>
   <g id="matplotlib.axis_1">
    <g id="xtick_1">
     <g id="line2d_1">
      <defs>
       <path id="mb032e01004" d="M 0 0 
L 0 3.5 
" style="stroke: #8b949e; stroke-width: 0.8"/>
      </defs>
      <g>
       <use xlink:href="#mb032e01004" x="147.396844" y="386.237969" style="fill: #8b949e; stroke: #8b949e; stroke-width: 0.8"/>
      </g>
     </g>
     <g id="text_1">
      <!-- Bicipiti -->
      <g style="fill: #8b949e" transform="translate(130.526532 400.836406) scale(0.1 -0.1)">
       <defs>
        <path id="DejaVuSans-42" d="M 1259 2228 
L 1259 519 
L 2272 519 
Q 2781 519 3026 730 
Q 3272 941 3272 1375 
Q 3272 1813 3026 2020 
Q 2781 2228 2272 2228 
L 1259 2228 
z
M 1259 4147 
L 1259 2741 
L 2194 2741 
Q 2656 2741 2882 2914 
Q 3109 3088 3109 3444 
Q 3109 3797 2882 3972 
Q 2656 4147 2194 4147 
L 1259 4147 
z
M 628 4666 
L 2241 4666 
Q 2963 4666 3353 4366 
Q 3744 4066 3744 3513 
Q 3744 3084 3544 2831 
Q 3344 2578 2956 2516 
Q 3422 2416 3680 2098 
Q 3938 1781 3938 1306 
Q 3938 681 3513 340 
Q 3088 0 2303 0 
L 628 0 
L 628 4666 
z
" transform="scale(0.015625)"/>
        <path id="DejaVuSans-69" d="M 603 3500 
L 1178 3500 
L 1178 0 
L 603 0 
L 603 3500 
z
M 603 4863 
L 1178 4863 
L 1178 4134 
L 603 4134 
L 603 4863 
z
" transform="scale(0.015625)"/>
        <path id="DejaVuSans-63" d="M 3122 3366 
L 3122 2828 
Q 2878 2963 2633 3030 
Q 2388 3097 2138 3097 
Q 1578 3097 1268 2742 
Q 959 2388 959 1747 
Q 959 1106 1268 751 
Q 1578 397 2138 397 
Q 2388 397 2633 464 
Q 2878 531 3122 666 
L 3122 134 
Q 2881 22 2623 -34 
Q 2366 -91 2075 -91 
Q 1284 -91 818 406 
Q 353 903 353 1747 
Q 353 2603 823 3093 
Q 1294 3584 2113 3584 
Q 2378 3584 2631 3529 
Q 2884 3475 3122 3366 
z
" transform="scale(0.015625)"/>
        <path id="DejaVuSans-70" d="M 1159 525 
L 1159 -1331 
L 581 -1331 
L 581 3500 
L 1159 3500 
L 1159 2969 
Q 1341 3281 1617 3432 
Q 1894 3584 2278 3584 
Q 2916 3584 3314 3078 
Q 3713 2572 3713 1747 
Q 3713 922 3314 415 
Q 2916 -91 2278 -91 
Q 1894 -91 1617 61 
Q 1341 213 1159 525 
z
M 3116 1747 
Q 3116 2381 2855 2742 
Q 2594 3103 2138 3103 
Q 1681 3103 1420 2742 
Q 1159 2381 1159 1747 
Q 1159 1113 1420 752 
Q 1681 391 2138 391 
Q 2594 391 2855 752 
Q 3116 1113 3116 1747 
z
" transform="scale(0.015625)"/>
        <path id="DejaVuSans-74" d="M 1172 4494 
L 1172 3500 
L 2356 3500 
L 2356 3053 
L 1172 3053 
L 1172 1153 
Q 1172 725 1289 603 
Q 1406 481 1766 481 
L 2356 481 
L 2356 0 
L 1766 0 
Q 1100 0 847 248 
Q 594 497 594 1153 
L 594 3053 
L 172 3053 
L 172 3500 
L 594 3500 
L 594 4494 
L 1172 4494 
z
" transform="scale(0.015625)"/>
       </defs>
       <use xlink:href="#DejaVuSans-42"/>
       <use xlink:href="#DejaVuSans-69" transform="translate(68.603516 0)"/>
       <use xlink:href="#DejaVuSans-63" transform="translate(96.386719 0)"/>
       <use xlink:href="#DejaVuSans-69" transform="translate(151.367188 0)"/>
       <use xlink:href="#DejaVuSans-70" transform="translate(179.150391 0)"/>
       <use xlink:href="#DejaVuSans-69" transform="translate(242.626953 0)"/>
       <use xlink:href="#DejaVuSans-74" transform="translate(270.410156 0)"/>
       <use xlink:href="#DejaVuSans-69" transform="translate(309.619141 0)"/>
      </g>
     </g>
    </g>
    <g id="xtick_2">
     <g id="line2d_2">
      <g>
       <use xlink:href="#mb032e01004" x="296.712271" y="386.237969" style="fill: #8b949e; stroke: #8b949e; stroke-width: 0.8"/>
      </g>
     </g>
     <g id="text_2">
      <!-- Core -->
      <g style="fill: #8b949e" transform="translate(285.141959 400.836406) scale(0.1 -0.1)">
       <defs>
        <path id="DejaVuSans-43" d="M 4122 4306 
L 4122 3641 
Q 3803 3938 3442 4084 
Q 3081 4231 2675 4231 
Q 1875 4231 1450 3742 
Q 1025 3253 1025 2328 
Q 1025 1406 1450 917 
Q 1875 428 2675 428 
Q 3081 428 3442 575 
Q 3803 722 4122 1019 
L 4122 359 
Q 3791 134 3420 21 
Q 3050 -91 2638 -91 
Q 1578 -91 968 557 
Q 359 1206 359 2328 
Q 359 3453 968 4101 
Q 1578 4750 2638 4750 
Q 3056 4750 3426 4639 
Q 3797 4528 4122 4306 
z
" transform="scale(0.015625)"/>
        <path id="DejaVuSans-6f" d="M 1959 3097 
Q 1497 3097 1228 2736 
Q 959 2375 959 1747 
Q 959 1119 1226 758 
Q 1494 397 1959 397 
Q 2419 397 2687 759 
Q 2956 1122 2956 1747 
Q 2956 2369 2687 2733 
Q 2419 3097 1959 3097 
z
M 1959 3584 
Q 2709 3584 3137 3096 
Q 3566 2609 3566 1747 
Q 3566 888 3137 398 
Q 2709 -91 1959 -91 
Q 1206 -91 779 398 
Q 353 888 353 1747 
Q 353 2609 779 3096 
Q 1206 3584 1959 3584 
z
" transform="scale(0.015625)"/>
        <path id="DejaVuSans-72" d="M 2631 2963 
Q 2534 3019 2420 3045 
Q 2306 3072 2169 3072 
Q 1681 3072 1420 2755 
Q 1159 2438 1159 1844 
L 1159 0 
L 581 0 
L 581 3500 
L 1159 3500 
L 1159 2956 
Q 1341 3275 1631 3429 
Q 1922 3584 2338 3584 
Q 2397 3584 2469 3576 
Q 2541 3569 2628 3553 
L 2631 2963 
z
" transform="scale(0.015625)"/>
        <path id="DejaVuSans-65" d="M 3597 1894 
L 3597 1613 
L 953 1613 
Q 991 1019 1311 708 
Q 1631 397 2203 397 
Q 2534 397 2845 478 
Q 3156 559 3463 722 
L 3463 178 
Q 3153 47 2828 -22 
Q 2503 -91 2169 -91 
Q 1331 -91 842 396 
Q 353 884 353 1716 
Q 353 2575 817 3079 
Q 1281 3584 2069 3584 
Q 2775 3584 3186 3129 
Q 3597 2675 3597 1894 
z
M 3022 2063 
Q 3016 2534 2758 2815 
Q 2500 3097 2075 3097 
Q 1594 3097 1305 2825 
Q 1016 2553 972 2059 
L 3022 2063 
z
" transform="scale(0.015625)"/>
       </defs>
       <use xlink:href="#DejaVuSans-43"/>
       <use xlink:href="#DejaVuSans-6f" transform="translate(69.824219 0)"/>
       <use xlink:href="#DejaVuSans-72" transform="translate(131.005859 0)"/>
       <use xlink:href="#DejaVuSans-65" transform="translate(169.869141 0)"/>
      </g>
     </g>
    </g>
    <g id="xtick_3">
     <g id="line2d_3">
      <g>
       <use xlink:href="#mb032e01004" x="446.027698" y="386.237969" style="fill: #8b949e; stroke: #8b949e; stroke-width: 0.8"/>
      </g>
     </g>
     <g id="text_3">
      <!-- Gambe -->
      <g style="fill: #8b949e" transform="translate(427.968323 400.836406) scale(0.1 -0.1)">
       <defs>
        <path id="DejaVuSans-47" d="M 3809 666 
L 3809 1919 
L 2778 1919 
L 2778 2438 
L 4434 2438 
L 4434 434 
Q 4069 175 3628 42 
Q 3188 -91 2688 -91 
Q 1594 -91 976 548 
Q 359 1188 359 2328 
Q 359 3472 976 4111 
Q 1594 4750 2688 4750 
Q 3144 4750 3555 4637 
Q 3966 4525 4313 4306 
L 4313 3634 
Q 3963 3931 3569 4081 
Q 3175 4231 2741 4231 
Q 1884 4231 1454 3753 
Q 1025 3275 1025 2328 
Q 1025 1384 1454 906 
Q 1884 428 2741 428 
Q 3075 428 3337 486 
Q 3600 544 3809 666 
z
" transform="scale(0.015625)"/>
        <path id="DejaVuSans-61" d="M 2194 1759 
Q 1497 1759 1228 1600 
Q 959 1441 959 1056 
Q 959 750 1161 570 
Q 1363 391 1709 391 
Q 2188 391 2477 730 
Q 2766 1069 2766 1631 
L 2766 1759 
L 2194 1759 
z
M 3341 1997 
L 3341 0 
L 2766 0 
L 2766 531 
Q 2569 213 2275 61 
Q 1981 -91 1556 -91 
Q 1019 -91 701 211 
Q 384 513 384 1019 
Q 384 1609 779 1909 
Q 1175 2209 1959 2209 
L 2766 2209 
L 2766 2266 
Q 2766 2663 2505 2880 
Q 2244 3097 1772 3097 
Q 1472 3097 1187 3025 
Q 903 2953 641 2809 
L 641 3341 
Q 956 3463 1253 3523 
Q 1550 3584 1831 3584 
Q 2591 3584 2966 3190 
Q 3341 2797 3341 1997 
z
" transform="scale(0.015625)"/>
        <path id="DejaVuSans-6d" d="M 3328 2828 
Q 3544 3216 3844 3400 
Q 4144 3584 4550 3584 
Q 5097 3584 5394 3201 
Q 5691 2819 5691 2113 
L 5691 0 
L 5113 0 
L 5113 2094 
Q 5113 2597 4934 2840 
Q 4756 3084 4391 3084 
Q 3944 3084 3684 2787 
Q 3425 2491 3425 1978 
L 3425 0 
L 2847 0 
L 2847 2094 
Q 2847 2600 2669 2842 
Q 2491 3084 2119 3084 
Q 1678 3084 1418 2786 
Q 1159 2488 1159 1978 
L 1159 0 
L 581 0 
L 581 3500 
L 1159 3500 
L 1159 2956 
Q 1356 3278 1631 3431 
Q 1906 3584 2284 3584 
Q 2666 3584 2933 3390 
Q 3200 3197 3328 2828 
z
" transform="scale(0.015625)"/>
        <path id="DejaVuSans-62" d="M 3116 1747 
Q 3116 2381 2855 2742 
Q 2594 3103 2138 3103 
Q 1681 3103 1420 2742 
Q 1159 2381 1159 1747 
Q 1159 1113 1420 752 
Q 1681 391 2138 391 
Q 2594 391 2855 752 
Q 3116 1113 3116 1747 
z
M 1159 2969 
Q 1341 3281 1617 3432 
Q 1894 3584 2278 3584 
Q 2916 3584 3314 3078 
Q 3713 2572 3713 1747 
Q 3713 922 3314 415 
Q 2916 -91 2278 -91 
Q 1894 -91 1617 61 
Q 1341 213 1159 525 
L 1159 0 
L 581 0 
L 581 4863 
L 1159 4863 
L 1159 2969 
z
" transform="scale(0.015625)"/>
       </defs>
       <use xlink:href="#DejaVuSans-47"/>
       <use xlink:href="#DejaVuSans-61" transform="translate(77.490234 0)"/>
       <use xlink:href="#DejaVuSans-6d" transform="translate(138.769531 0)"/>
       <use xlink:href="#DejaVuSans-62" transform="translate(236.181641 0)"/>
       <use xlink:href="#DejaVuSans-65" transform="translate(299.658203 0)"/>
      </g>
     </g>
    </g>
    <g id="xtick_4">
     <g id="line2d_4">
      <g>
       <use xlink:href="#mb032e01004" x="595.343125" y="386.237969" style="fill: #8b949e; stroke: #8b949e; stroke-width: 0.8"/>
      </g>
     </g>
     <g id="text_4">
      <!-- Petto -->
      <g style="fill: #8b949e" transform="translate(582.453281 400.836406) scale(0.1 -0.1)">
       <defs>
        <path id="DejaVuSans-50" d="M 1259 4147 
L 1259 2394 
L 2053 2394 
Q 2494 2394 2734 2622 
Q 2975 2850 2975 3272 
Q 2975 3691 2734 3919 
Q 2494 4147 2053 4147 
L 1259 4147 
z
M 628 4666 
L 2053 4666 
Q 2838 4666 3239 4311 
Q 3641 3956 3641 3272 
Q 3641 2581 3239 2228 
Q 2838 1875 2053 1875 
L 1259 1875 
L 1259 0 
L 628 0 
L 628 4666 
z
" transform="scale(0.015625)"/>
       </defs>
       <use xlink:href="#DejaVuSans-50"/>
       <use xlink:href="#DejaVuSans-65" transform="translate(56.677734 0)"/>
       <use xlink:href="#DejaVuSans-74" transform="translate(118.201172 0)"/>
       <use xlink:href="#DejaVuSans-74" transform="translate(157.410156 0)"/>
       <use xlink:href="#DejaVuSans-6f" transform="translate(196.619141 0)"/>
      </g>
     </g>
    </g>
    <g id="xtick_5">
     <g id="line2d_5">
      <g>
       <use xlink:href="#mb032e01004" x="744.658552" y="386.237969" style="fill: #8b949e; stroke: #8b949e; stroke-width: 0.8"/>
      </g>
     </g>
     <g id="text_5">
      <!-- Schiena -->
      <g style="fill: #8b949e" transform="translate(724.867927 400.836406) scale(0.1 -0.1)">
       <defs>
        <path id="DejaVuSans-53" d="M 3425 4513 
L 3425 3897 
Q 3066 4069 2747 4153 
Q 2428 4238 2131 4238 
Q 1616 4238 1336 4038 
Q 1056 3838 1056 3469 
Q 1056 3159 1242 3001 
Q 1428 2844 1947 2747 
L 2328 2669 
Q 3034 2534 3370 2195 
Q 3706 1856 3706 1288 
Q 3706 609 3251 259 
Q 2797 -91 1919 -91 
Q 1588 -91 1214 -16 
Q 841 59 441 206 
L 441 856 
Q 825 641 1194 531 
Q 1563 422 1919 422 
Q 2459 422 2753 634 
Q 3047 847 3047 1241 
Q 3047 1584 2836 1778 
Q 2625 1972 2144 2069 
L 1759 2144 
Q 1053 2284 737 2584 
Q 422 2884 422 3419 
Q 422 4038 858 4394 
Q 1294 4750 2059 4750 
Q 2388 4750 2728 4690 
Q 3069 4631 3425 4513 
z
" transform="scale(0.015625)"/>
        <path id="DejaVuSans-68" d="M 3513 2113 
L 3513 0 
L 2938 0 
L 2938 2094 
Q 2938 2591 2744 2837 
Q 2550 3084 2163 3084 
Q 1697 3084 1428 2787 
Q 1159 2491 1159 1978 
L 1159 0 
L 581 0 
L 581 4863 
L 1159 4863 
L 1159 2956 
Q 1366 3272 1645 3428 
Q 1925 3584 2291 3584 
Q 2894 3584 3203 3211 
Q 3513 2838 3513 2113 
z
" transform="scale(0.015625)"/>
        <path id="DejaVuSans-6e" d="M 3513 2113 
L 3513 0 
L 2938 0 
L 2938 2094 
Q 2938 2591 2744 2837 
Q 2550 3084 2163 3084 
Q 1697 3084 1428 2787 
Q 1159 2491 1159 1978 
L 1159 0 
L 581 0 
L 581 3500 
L 1159 3500 
L 1159 2956 
Q 1366 3272 1645 3428 
Q 1925 3584 2291 3584 
Q 2894 3584 3203 3211 
Q 3513 2838 3513 2113 
z
" transform="scale(0.015625)"/>
       </defs>
       <use xlink:href="#DejaVuSans-53"/>
       <use xlink:href="#DejaVuSans-63" transform="translate(63.476562 0)"/>
       <use xlink:href="#DejaVuSans-68" transform="translate(118.457031 0)"/>
       <use xlink:href="#DejaVuSans-69" transform="translate(181.835938 0)"/>
       <use xlink:href="#DejaVuSans-65" transform="translate(209.619141 0)"/>
       <use xlink:href="#DejaVuSans-6e" transform="translate(271.142578 0)"/>
       <use xlink:href="#DejaVuSans-61" transform="translate(334.521484 0)"/>
      </g>
     </g>
    </g>
    <g id="xtick_6">
     <g id="line2d_6">
      <g>
       <use xlink:href="#mb032e01004" x="893.973979" y="386.237969" style="fill: #8b949e; stroke: #8b949e; stroke-width: 0.8"/>
      </g>
     </g>
     <g id="text_6">
      <!-- Spalle -->
      <g style="fill: #8b949e" transform="translate(878.706791 400.836406) scale(0.1 -0.1)">
       <defs>
        <path id="DejaVuSans-6c" d="M 603 4863 
L 1178 4863 
L 1178 0 
L 603 0 
L 603 4863 
z
" transform="scale(0.015625)"/>
       </defs>
       <use xlink:href="#DejaVuSans-53"/>
       <use xlink:href="#DejaVuSans-70" transform="translate(63.476562 0)"/>
       <use xlink:href="#DejaVuSans-61" transform="translate(126.953125 0)"/>
       <use xlink:href="#DejaVuSans-6c" transform="translate(188.232422 0)"/>
       <use xlink:href="#DejaVuSans-6c" transform="translate(216.015625 0)"/>
       <use xlink:href="#DejaVuSans-65" transform="translate(243.798828 0)"/>
      </g>
     </g>
    </g>
    <g id="xtick_7">
     <g id="line2d_7">
      <g>
       <use xlink:href="#mb032e01004" x="1043.289406" y="386.237969" style="fill: #8b949e; stroke: #8b949e; stroke-width: 0.8"/>
      </g>
     </g>
     <g id="text_7">
      <!-- Tricipiti -->
      <g style="fill: #8b949e" transform="translate(1025.477687 400.836406) scale(0.1 -0.1)">
       <defs>
        <path id="DejaVuSans-54" d="M -19 4666 
L 3928 4666 
L 3928 4134 
L 2272 4134 
L 2272 0 
L 1638 0 
L 1638 4134 
L -19 4134 
L -19 4666 
z
" transform="scale(0.015625)"/>
       </defs>
       <use xlink:href="#DejaVuSans-54"/>
       <use xlink:href="#DejaVuSans-72" transform="translate(46.333984 0)"/>
       <use xlink:href="#DejaVuSans-69" transform="translate(87.447266 0)"/>
       <use xlink:href="#DejaVuSans-63" transform="translate(115.230469 0)"/>
       <use xlink:href="#DejaVuSans-69" transform="translate(170.210938 0)"/>
       <use xlink:href="#DejaVuSans-70" transform="translate(197.994141 0)"/>
       <use xlink:href="#DejaVuSans-69" transform="translate(261.470703 0)"/>
       <use xlink:href="#DejaVuSans-74" transform="translate(289.253906 0)"/>
       <use xlink:href="#DejaVuSans-69" transform="translate(328.462891 0)"/>
      </g>
     </g>
    </g>
    <g id="text_8">
     <!-- Muscle Group -->
     <g style="fill: #8b949e" transform="translate(561.232188 414.514531) scale(0.1 -0.1)">
      <defs>
       <path id="DejaVuSans-4d" d="M 628 4666 
L 1569 4666 
L 2759 1491 
L 3956 4666 
L 4897 4666 
L 4897 0 
L 4281 0 
L 4281 4097 
L 3078 897 
L 2444 897 
L 1241 4097 
L 1241 0 
L 628 0 
L 628 4666 
z
" transform="scale(0.015625)"/>
       <path id="DejaVuSans-75" d="M 544 1381 
L 544 3500 
L 1119 3500 
L 1119 1403 
Q 1119 906 1312 657 
Q 1506 409 1894 409 
Q 2359 409 2629 706 
Q 2900 1003 2900 1516 
L 2900 3500 
L 3475 3500 
L 3475 0 
L 2900 0 
L 2900 538 
Q 2691 219 2414 64 
Q 2138 -91 1772 -91 
Q 1169 -91 856 284 
Q 544 659 544 1381 
z
M 1991 3584 
L 1991 3584 
z
" transform="scale(0.015625)"/>
       <path id="DejaVuSans-73" d="M 2834 3397 
L 2834 2853 
Q 2591 2978 2328 3040 
Q 2066 3103 1784 3103 
Q 1356 3103 1142 2972 
Q 928 2841 928 2578 
Q 928 2378 1081 2264 
Q 1234 2150 1697 2047 
L 1894 2003 
Q 2506 1872 2764 1633 
Q 3022 1394 3022 966 
Q 3022 478 2636 193 
Q 2250 -91 1575 -91 
Q 1294 -91 989 -36 
Q 684 19 347 128 
L 347 722 
Q 666 556 975 473 
Q 1284 391 1588 391 
Q 1994 391 2212 530 
Q 2431 669 2431 922 
Q 2431 1156 2273 1281 
Q 2116 1406 1581 1522 
L 1381 1569 
Q 847 1681 609 1914 
Q 372 2147 372 2553 
Q 372 3047 722 3315 
Q 1072 3584 1716 3584 
Q 2034 3584 2315 3537 
Q 2597 3491 2834 3397 
z
" transform="scale(0.015625)"/>
       <path id="DejaVuSans-20" transform="scale(0.015625)"/>
      </defs>
      <use xlink:href="#DejaVuSans-4d"/>
      <use xlink:href="#DejaVuSans-75" transform="translate(86.279297 0)"/>
      <use xlink:href="#DejaVuSans-73" transform="translate(149.658203 0)"/>
      <use xlink:href="#DejaVuSans-63" transform="translate(201.757812 0)"/>
      <use xlink:href="#DejaVuSans-6c" transform="translate(256.738281 0)"/>
      <use xlink:href="#DejaVuSans-65" transform="translate(284.521484 0)"/>
      <use xlink:href="#DejaVuSans-20" transform="translate(346.044922 0)"/>
      <use xlink:href="#DejaVuSans-47" transform="translate(377.832031 0)"/>
      <use xlink:href="#DejaVuSans-72" transform="translate(455.322266 0)"/>
      <use xlink:href="#DejaVuSans-6f" transform="translate(494.185547 0)"/>
      <use xlink:href="#DejaVuSans-75" transform="translate(555.367188 0)"/>
      <use xlink:href="#DejaVuSans-70" transform="translate(618.746094 0)"/>
     </g>
    </g>
   </g>
   <g id="matplotlib.axis_2">
    <g id="ytick_1">
     <g id="line2d_8">
      <defs>
       <path id="m4870056c8b" d="M 0 0 
L -3.5 0 
" style="stroke: #8b949e; stroke-width: 0.8"/>
      </defs>
      <g>
       <use xlink:href="#m4870056c8b" x="53.328125" y="386.237969" style="fill: #8b949e; stroke: #8b949e; stroke-width: 0.8"/>
      </g>
     </g>
     <g id="text_9">
      <!-- 0 -->
      <g style="fill: #8b949e" transform="translate(39.965625 390.037187) scale(0.1 -0.1)">
       <defs>
        <path id="DejaVuSans-30" d="M 2034 4250 
Q 1547 4250 1301 3770 
Q 1056 3291 1056 2328 
Q 1056 1369 1301 889 
Q 1547 409 2034 409 
Q 2525 409 2770 889 
Q 3016 1369 3016 2328 
Q 3016 3291 2770 3770 
Q 2525 4250 2034 4250 
z
M 2034 4750 
Q 2819 4750 3233 4129 
Q 3647 3509 3647 2328 
Q 3647 1150 3233 529 
Q 2819 -91 2034 -91 
Q 1250 -91 836 529 
Q 422 1150 422 2328 
Q 422 3509 836 4129 
Q 1250 4750 2034 4750 
z
" transform="scale(0.015625)"/>
       </defs>
       <use xlink:href="#DejaVuSans-30"/>
      </g>
     </g>
    </g>
    <g id="ytick_2">
     <g id="line2d_9">
      <g>
       <use xlink:href="#m4870056c8b" x="53.328125" y="318.674009" style="fill: #8b949e; stroke: #8b949e; stroke-width: 0.8"/>
      </g>
     </g>
     <g id="text_10">
      <!-- 1000 -->
      <g style="fill: #8b949e" transform="translate(20.878125 322.473228) scale(0.1 -0.1)">
       <defs>
        <path id="DejaVuSans-31" d="M 794 531 
L 1825 531 
L 1825 4091 
L 703 3866 
L 703 4441 
L 1819 4666 
L 2450 4666 
L 2450 531 
L 3481 531 
L 3481 0 
L 794 0 
L 794 531 
z
" transform="scale(0.015625)"/>
       </defs>
       <use xlink:href="#DejaVuSans-31"/>
       <use xlink:href="#DejaVuSans-30" transform="translate(63.623047 0)"/>
       <use xlink:href="#DejaVuSans-30" transform="translate(127.246094 0)"/>
       <use xlink:href="#DejaVuSans-30" transform="translate(190.869141 0)"/>
      </g>
     </g>
    </g>
    <g id="ytick_3">
     <g id="line2d_10">
      <g>
       <use xlink:href="#m4870056c8b" x="53.328125" y="251.110049" style="fill: #8b949e; stroke: #8b949e; stroke-width: 0.8"/>
      </g>
     </g>
     <g id="text_11">
      <!-- 2000 -->
      <g style="fill: #8b949e" transform="translate(20.878125 254.909268) scale(0.1 -0.1)">
       <defs>
        <path id="DejaVuSans-32" d="M 1228 531 
L 3431 531 
L 3431 0 
L 469 0 
L 469 531 
Q 828 903 1448 1529 
Q 2069 2156 2228 2338 
Q 2531 2678 2651 2914 
Q 2772 3150 2772 3378 
Q 2772 3750 2511 3984 
Q 2250 4219 1831 4219 
Q 1534 4219 1204 4116 
Q 875 4013 500 3803 
L 500 4441 
Q 881 4594 1212 4672 
Q 1544 4750 1819 4750 
Q 2544 4750 2975 4387 
Q 3406 4025 3406 3419 
Q 3406 3131 3298 2873 
Q 3191 2616 2906 2266 
Q 2828 2175 2409 1742 
Q 1991 1309 1228 531 
z
" transform="scale(0.015625)"/>
       </defs>
       <use xlink:href="#DejaVuSans-32"/>
       <use xlink:href="#DejaVuSans-30" transform="translate(63.623047 0)"/>
       <use xlink:href="#DejaVuSans-30" transform="translate(127.246094 0)"/>
       <use xlink:href="#DejaVuSans-30" transform="translate(190.869141 0)"/>
      </g>
     </g>
    </g>
    <g id="ytick_4">
     <g id="line2d_11">
      <g>
       <use xlink:href="#m4870056c8b" x="53.328125" y="183.546089" style="fill: #8b949e; stroke: #8b949e; stroke-width: 0.8"/>
      </g>
     </g>
     <g id="text_12">
      <!-- 3000 -->
      <g style="fill: #8b949e" transform="translate(20.878125 187.345308) scale(0.1 -0.1)">
       <defs>
        <path id="DejaVuSans-33" d="M 2597 2516 
Q 3050 2419 3304 2112 
Q 3559 1806 3559 1356 
Q 3559 666 3084 287 
Q 2609 -91 1734 -91 
Q 1441 -91 1130 -33 
Q 819 25 488 141 
L 488 750 
Q 750 597 1062 519 
Q 1375 441 1716 441 
Q 2309 441 2620 675 
Q 2931 909 2931 1356 
Q 2931 1769 2642 2001 
Q 2353 2234 1838 2234 
L 1294 2234 
L 1294 2753 
L 1863 2753 
Q 2328 2753 2575 2939 
Q 2822 3125 2822 3475 
Q 2822 3834 2567 4026 
Q 2313 4219 1838 4219 
Q 1578 4219 1281 4162 
Q 984 4106 628 3988 
L 628 4550 
Q 988 4650 1302 4700 
Q 1616 4750 1894 4750 
Q 2613 4750 3031 4423 
Q 3450 4097 3450 3541 
Q 3450 3153 3228 2886 
Q 3006 2619 2597 2516 
z
" transform="scale(0.015625)"/>
       </defs>
       <use xlink:href="#DejaVuSans-33"/>
       <use xlink:href="#DejaVuSans-30" transform="translate(63.623047 0)"/>
       <use xlink:href="#DejaVuSans-30" transform="translate(127.246094 0)"/>
       <use xlink:href="#DejaVuSans-30" transform="translate(190.869141 0)"/>
      </g>
     </g>
    </g>
    <g id="ytick_5">
     <g id="line2d_12">
      <g>
       <use xlink:href="#m4870056c8b" x="53.328125" y="115.98213" style="fill: #8b949e; stroke: #8b949e; stroke-width: 0.8"/>
      </g>
     </g>
     <g id="text_13">
      <!-- 4000 -->
      <g style="fill: #8b949e" transform="translate(20.878125 119.781348) scale(0.1 -0.1)">
       <defs>
        <path id="DejaVuSans-34" d="M 2419 4116 
L 825 1625 
L 2419 1625 
L 2419 4116 
z
M 2253 4666 
L 3047 4666 
L 3047 1625 
L 3713 1625 
L 3713 1100 
L 3047 1100 
L 3047 0 
L 2419 0 
L 2419 1100 
L 313 1100 
L 313 1709 
L 2253 4666 
z
" transform="scale(0.015625)"/>
       </defs>
       <use xlink:href="#DejaVuSans-34"/>
       <use xlink:href="#DejaVuSans-30" transform="translate(63.623047 0)"/>
       <use xlink:href="#DejaVuSans-30" transform="translate(127.246094 0)"/>
       <use xlink:href="#DejaVuSans-30" transform="translate(190.869141 0)"/>
      </g>
     </g>
    </g>
    <g id="ytick_6">
     <g id="line2d_13">
      <g>
       <use xlink:href="#m4870056c8b" x="53.328125" y="48.41817" style="fill: #8b949e; stroke: #8b949e; stroke-width: 0.8"/>
      </g>
     </g>
     <g id="text_14">
      <!-- 5000 -->
      <g style="fill: #8b949e" transform="translate(20.878125 52.217388) scale(0.1 -0.1)">
       <defs>
        <path id="DejaVuSans-35" d="M 691 4666 
L 3169 4666 
L 3169 4134 
L 1269 4134 
L 1269 2991 
Q 1406 3038 1543 3061 
Q 1681 3084 1819 3084 
Q 2600 3084 3056 2656 
Q 3513 2228 3513 1497 
Q 3513 744 3044 326 
Q 2575 -91 1722 -91 
Q 1428 -91 1123 -41 
Q 819 9 494 109 
L 494 744 
Q 775 591 1075 516 
Q 1375 441 1709 441 
Q 2250 441 2565 725 
Q 2881 1009 2881 1497 
Q 2881 1984 2565 2268 
Q 2250 2553 1709 2553 
Q 1456 2553 1204 2497 
Q 953 2441 691 2322 
L 691 4666 
z
" transform="scale(0.015625)"/>
       </defs>
       <use xlink:href="#DejaVuSans-35"/>
       <use xlink:href="#DejaVuSans-30" transform="translate(63.623047 0)"/>
       <use xlink:href="#DejaVuSans-30" transform="translate(127.246094 0)"/>
       <use xlink:href="#DejaVuSans-30" transform="translate(190.869141 0)"/>
      </g>
     </g>
    </g>
    <g id="text_15">
     <!-- Volume -->
     <g style="fill: #8b949e" transform="translate(14.798438 223.254844) rotate(-90) scale(0.1 -0.1)">
      <defs>
       <path id="DejaVuSans-56" d="M 1831 0 
L 50 4666 
L 709 4666 
L 2188 738 
L 3669 4666 
L 4325 4666 
L 2547 0 
L 1831 0 
z
" transform="scale(0.015625)"/>
      </defs>
      <use xlink:href="#DejaVuSans-56"/>
      <use xlink:href="#DejaVuSans-6f" transform="translate(60.658203 0)"/>
      <use xlink:href="#DejaVuSans-6c" transform="translate(121.839844 0)"/>
      <use xlink:href="#DejaVuSans-75" transform="translate(149.623047 0)"/>
      <use xlink:href="#DejaVuSans-6d" transform="translate(213.001953 0)"/>
      <use xlink:href="#DejaVuSans-65" transform="translate(310.414062 0)"/>
     </g>
    </g>
   </g>
   <g id="patch_18">
    <path d="M 53.328125 386.237969 
L 53.328125 23.077969 
" style="fill: none; stroke: #30363d; stroke-width: 0.8; stroke-linejoin: miter; stroke-linecap: square"/>
   </g>
   <g id="patch_19">
    <path d="M 1137.358125 386.237969 
L 1137.358125 23.077969 
" style="fill: none; stroke: #30363d; stroke-width: 0.8; stroke-linejoin: miter; stroke-linecap: square"/>
   </g>
   <g id="patch_20">
    <path d="M 53.328125 386.237969 
L 1137.358125 386.237969 
" style="fill: none; stroke: #30363d; stroke-width: 0.8; stroke-linejoin: miter; stroke-linecap: square"/>
   </g>
   <g id="patch_21">
    <path d="M 53.328125 23.077969 
L 1137.358125 23.077969 
" style="fill: none; stroke: #30363d; stroke-width: 0.8; stroke-linejoin: miter; stroke-linecap: square"/>
   </g>
   <g id="text_16">
    <!-- Brachiale -->
    <g style="fill: #ffffff" transform="translate(127.620867 329.979454) scale(0.075 -0.075)">
     <defs>
      <path id="DejaVuSans-Bold-42" d="M 2456 2859 
Q 2741 2859 2887 2984 
Q 3034 3109 3034 3353 
Q 3034 3594 2887 3720 
Q 2741 3847 2456 3847 
L 1791 3847 
L 1791 2859 
L 2456 2859 
z
M 2497 819 
Q 2859 819 3042 972 
Q 3225 1125 3225 1434 
Q 3225 1738 3044 1889 
Q 2863 2041 2497 2041 
L 1791 2041 
L 1791 819 
L 2497 819 
z
M 3616 2497 
Q 4003 2384 4215 2081 
Q 4428 1778 4428 1338 
Q 4428 663 3972 331 
Q 3516 0 2584 0 
L 588 0 
L 588 4666 
L 2394 4666 
Q 3366 4666 3802 4372 
Q 4238 4078 4238 3431 
Q 4238 3091 4078 2852 
Q 3919 2613 3616 2497 
z
" transform="scale(0.015625)"/>
      <path id="DejaVuSans-Bold-72" d="M 3138 2547 
Q 2991 2616 2845 2648 
Q 2700 2681 2553 2681 
Q 2122 2681 1889 2404 
Q 1656 2128 1656 1613 
L 1656 0 
L 538 0 
L 538 3500 
L 1656 3500 
L 1656 2925 
Q 1872 3269 2151 3426 
Q 2431 3584 2822 3584 
Q 2878 3584 2943 3579 
Q 3009 3575 3134 3559 
L 3138 2547 
z
" transform="scale(0.015625)"/>
      <path id="DejaVuSans-Bold-61" d="M 2106 1575 
Q 1756 1575 1579 1456 
Q 1403 1338 1403 1106 
Q 1403 894 1545 773 
Q 1688 653 1941 653 
Q 2256 653 2472 879 
Q 2688 1106 2688 1447 
L 2688 1575 
L 2106 1575 
z
M 3816 1997 
L 3816 0 
L 2688 0 
L 2688 519 
Q 2463 200 2181 54 
Q 1900 -91 1497 -91 
Q 953 -91 614 226 
Q 275 544 275 1050 
Q 275 1666 698 1953 
Q 1122 2241 2028 2241 
L 2688 2241 
L 2688 2328 
Q 2688 2594 2478 2717 
Q 2269 2841 1825 2841 
Q 1466 2841 1156 2769 
Q 847 2697 581 2553 
L 581 3406 
Q 941 3494 1303 3539 
Q 1666 3584 2028 3584 
Q 2975 3584 3395 3211 
Q 3816 2838 3816 1997 
z
" transform="scale(0.015625)"/>
      <path id="DejaVuSans-Bold-63" d="M 3366 3391 
L 3366 2478 
Q 3138 2634 2908 2709 
Q 2678 2784 2431 2784 
Q 1963 2784 1702 2511 
Q 1441 2238 1441 1747 
Q 1441 1256 1702 982 
Q 1963 709 2431 709 
Q 2694 709 2930 787 
Q 3166 866 3366 1019 
L 3366 103 
Q 3103 6 2833 -42 
Q 2563 -91 2291 -91 
Q 1344 -91 809 395 
Q 275 881 275 1747 
Q 275 2613 809 3098 
Q 1344 3584 2291 3584 
Q 2566 3584 2833 3536 
Q 3100 3488 3366 3391 
z
" transform="scale(0.015625)"/>
      <path id="DejaVuSans-Bold-68" d="M 4056 2131 
L 4056 0 
L 2931 0 
L 2931 347 
L 2931 1625 
Q 2931 2084 2911 2256 
Q 2891 2428 2841 2509 
Q 2775 2619 2662 2680 
Q 2550 2741 2406 2741 
Q 2056 2741 1856 2470 
Q 1656 2200 1656 1722 
L 1656 0 
L 538 0 
L 538 4863 
L 1656 4863 
L 1656 2988 
Q 1909 3294 2193 3439 
Q 2478 3584 2822 3584 
Q 3428 3584 3742 3212 
Q 4056 2841 4056 2131 
z
" transform="scale(0.015625)"/>
      <path id="DejaVuSans-Bold-69" d="M 538 3500 
L 1656 3500 
L 1656 0 
L 538 0 
L 538 3500 
z
M 538 4863 
L 1656 4863 
L 1656 3950 
L 538 3950 
L 538 4863 
z
" transform="scale(0.015625)"/>
      <path id="DejaVuSans-Bold-6c" d="M 538 4863 
L 1656 4863 
L 1656 0 
L 538 0 
L 538 4863 
z
" transform="scale(0.015625)"/>
      <path id="DejaVuSans-Bold-65" d="M 4031 1759 
L 4031 1441 
L 1416 1441 
Q 1456 1047 1700 850 
Q 1944 653 2381 653 
Q 2734 653 3104 758 
Q 3475 863 3866 1075 
L 3866 213 
Q 3469 63 3072 -14 
Q 2675 -91 2278 -91 
Q 1328 -91 801 392 
Q 275 875 275 1747 
Q 275 2603 792 3093 
Q 1309 3584 2216 3584 
Q 3041 3584 3536 3087 
Q 4031 2591 4031 1759 
z
M 2881 2131 
Q 2881 2450 2695 2645 
Q 2509 2841 2209 2841 
Q 1884 2841 1681 2658 
Q 1478 2475 1428 2131 
L 2881 2131 
z
" transform="scale(0.015625)"/>
     </defs>
     <use xlink:href="#DejaVuSans-Bold-42"/>
     <use xlink:href="#DejaVuSans-Bold-72" transform="translate(76.220703 0)"/>
     <use xlink:href="#DejaVuSans-Bold-61" transform="translate(125.537109 0)"/>
     <use xlink:href="#DejaVuSans-Bold-63" transform="translate(193.017578 0)"/>
     <use xlink:href="#DejaVuSans-Bold-68" transform="translate(252.294922 0)"/>
     <use xlink:href="#DejaVuSans-Bold-69" transform="translate(323.486328 0)"/>
     <use xlink:href="#DejaVuSans-Bold-61" transform="translate(357.763672 0)"/>
     <use xlink:href="#DejaVuSans-Bold-6c" transform="translate(425.244141 0)"/>
     <use xlink:href="#DejaVuSans-Bold-65" transform="translate(459.521484 0)"/>
    </g>
    <!-- 93% -->
    <g style="fill: #ffffff" transform="translate(138.420867 338.377813) scale(0.075 -0.075)">
     <defs>
      <path id="DejaVuSans-Bold-39" d="M 641 103 
L 641 966 
Q 928 831 1190 764 
Q 1453 697 1709 697 
Q 2247 697 2547 995 
Q 2847 1294 2900 1881 
Q 2688 1725 2447 1647 
Q 2206 1569 1925 1569 
Q 1209 1569 770 1986 
Q 331 2403 331 3084 
Q 331 3838 820 4291 
Q 1309 4744 2131 4744 
Q 3044 4744 3544 4128 
Q 4044 3513 4044 2388 
Q 4044 1231 3459 570 
Q 2875 -91 1856 -91 
Q 1528 -91 1228 -42 
Q 928 6 641 103 
z
M 2125 2350 
Q 2441 2350 2600 2554 
Q 2759 2759 2759 3169 
Q 2759 3575 2600 3781 
Q 2441 3988 2125 3988 
Q 1809 3988 1650 3781 
Q 1491 3575 1491 3169 
Q 1491 2759 1650 2554 
Q 1809 2350 2125 2350 
z
" transform="scale(0.015625)"/>
      <path id="DejaVuSans-Bold-33" d="M 2981 2516 
Q 3453 2394 3698 2092 
Q 3944 1791 3944 1325 
Q 3944 631 3412 270 
Q 2881 -91 1863 -91 
Q 1503 -91 1142 -33 
Q 781 25 428 141 
L 428 1069 
Q 766 900 1098 814 
Q 1431 728 1753 728 
Q 2231 728 2486 893 
Q 2741 1059 2741 1369 
Q 2741 1688 2480 1852 
Q 2219 2016 1709 2016 
L 1228 2016 
L 1228 2791 
L 1734 2791 
Q 2188 2791 2409 2933 
Q 2631 3075 2631 3366 
Q 2631 3634 2415 3781 
Q 2200 3928 1806 3928 
Q 1516 3928 1219 3862 
Q 922 3797 628 3669 
L 628 4550 
Q 984 4650 1334 4700 
Q 1684 4750 2022 4750 
Q 2931 4750 3382 4451 
Q 3834 4153 3834 3553 
Q 3834 3144 3618 2883 
Q 3403 2622 2981 2516 
z
" transform="scale(0.015625)"/>
      <path id="DejaVuSans-Bold-25" d="M 4959 1925 
Q 4738 1925 4616 1733 
Q 4494 1541 4494 1184 
Q 4494 825 4614 633 
Q 4734 441 4959 441 
Q 5184 441 5303 633 
Q 5422 825 5422 1184 
Q 5422 1541 5301 1733 
Q 5181 1925 4959 1925 
z
M 4959 2450 
Q 5541 2450 5875 2112 
Q 6209 1775 6209 1184 
Q 6209 594 5875 251 
Q 5541 -91 4959 -91 
Q 4378 -91 4042 251 
Q 3706 594 3706 1184 
Q 3706 1772 4042 2111 
Q 4378 2450 4959 2450 
z
M 2094 -91 
L 1403 -91 
L 4319 4750 
L 5013 4750 
L 2094 -91 
z
M 1453 4750 
Q 2034 4750 2367 4411 
Q 2700 4072 2700 3481 
Q 2700 2891 2367 2550 
Q 2034 2209 1453 2209 
Q 872 2209 539 2550 
Q 206 2891 206 3481 
Q 206 4072 539 4411 
Q 872 4750 1453 4750 
z
M 1453 4225 
Q 1228 4225 1106 4031 
Q 984 3838 984 3481 
Q 984 3122 1106 2926 
Q 1228 2731 1453 2731 
Q 1678 2731 1798 2926 
Q 1919 3122 1919 3481 
Q 1919 3838 1797 4031 
Q 1675 4225 1453 4225 
z
" transform="scale(0.015625)"/>
     </defs>
     <use xlink:href="#DejaVuSans-Bold-39"/>
     <use xlink:href="#DejaVuSans-Bold-33" transform="translate(69.580078 0)"/>
     <use xlink:href="#DejaVuSans-Bold-25" transform="translate(139.160156 0)"/>
    </g>
   </g>
   <g id="text_17">
    <!-- Bicipiti -->
    <g style="fill: #ffffff" transform="translate(132.696844 271.715673) scale(0.075 -0.075)">
     <defs>
      <path id="DejaVuSans-Bold-70" d="M 1656 506 
L 1656 -1331 
L 538 -1331 
L 538 3500 
L 1656 3500 
L 1656 2988 
Q 1888 3294 2169 3439 
Q 2450 3584 2816 3584 
Q 3463 3584 3878 3070 
Q 4294 2556 4294 1747 
Q 4294 938 3878 423 
Q 3463 -91 2816 -91 
Q 2450 -91 2169 54 
Q 1888 200 1656 506 
z
M 2400 2772 
Q 2041 2772 1848 2508 
Q 1656 2244 1656 1747 
Q 1656 1250 1848 986 
Q 2041 722 2400 722 
Q 2759 722 2948 984 
Q 3138 1247 3138 1747 
Q 3138 2247 2948 2509 
Q 2759 2772 2400 2772 
z
" transform="scale(0.015625)"/>
      <path id="DejaVuSans-Bold-74" d="M 1759 4494 
L 1759 3500 
L 2913 3500 
L 2913 2700 
L 1759 2700 
L 1759 1216 
Q 1759 972 1856 886 
Q 1953 800 2241 800 
L 2816 800 
L 2816 0 
L 1856 0 
Q 1194 0 917 276 
Q 641 553 641 1216 
L 641 2700 
L 84 2700 
L 84 3500 
L 641 3500 
L 641 4494 
L 1759 4494 
z
" transform="scale(0.015625)"/>
     </defs>
     <use xlink:href="#DejaVuSans-Bold-42"/>
     <use xlink:href="#DejaVuSans-Bold-69" transform="translate(76.220703 0)"/>
     <use xlink:href="#DejaVuSans-Bold-63" transform="translate(110.498047 0)"/>
     <use xlink:href="#DejaVuSans-Bold-69" transform="translate(169.775391 0)"/>
     <use xlink:href="#DejaVuSans-Bold-70" transform="translate(204.052734 0)"/>
     <use xlink:href="#DejaVuSans-Bold-69" transform="translate(275.634766 0)"/>
     <use xlink:href="#DejaVuSans-Bold-74" transform="translate(309.912109 0)"/>
     <use xlink:href="#DejaVuSans-Bold-69" transform="translate(357.714844 0)"/>
    </g>
    <!-- 7% -->
    <g style="fill: #ffffff" transform="translate(141.030047 280.114033) scale(0.075 -0.075)">
     <defs>
      <path id="DejaVuSans-Bold-37" d="M 428 4666 
L 3944 4666 
L 3944 3988 
L 2125 0 
L 953 0 
L 2675 3781 
L 428 3781 
L 428 4666 
z
" transform="scale(0.015625)"/>
     </defs>
     <use xlink:href="#DejaVuSans-Bold-37"/>
     <use xlink:href="#DejaVuSans-Bold-25" transform="translate(69.580078 0)"/>
    </g>
   </g>
   <g id="text_18">
    <!-- Addominali -->
    <g style="fill: #ffffff" transform="translate(272.900943 364.306945) scale(0.075 -0.075)">
     <defs>
      <path id="DejaVuSans-Bold-41" d="M 3419 850 
L 1538 850 
L 1241 0 
L 31 0 
L 1759 4666 
L 3194 4666 
L 4922 0 
L 3713 0 
L 3419 850 
z
M 1838 1716 
L 3116 1716 
L 2478 3572 
L 1838 1716 
z
" transform="scale(0.015625)"/>
      <path id="DejaVuSans-Bold-64" d="M 2919 2988 
L 2919 4863 
L 4044 4863 
L 4044 0 
L 2919 0 
L 2919 506 
Q 2688 197 2409 53 
Q 2131 -91 1766 -91 
Q 1119 -91 703 423 
Q 288 938 288 1747 
Q 288 2556 703 3070 
Q 1119 3584 1766 3584 
Q 2128 3584 2408 3439 
Q 2688 3294 2919 2988 
z
M 2181 722 
Q 2541 722 2730 984 
Q 2919 1247 2919 1747 
Q 2919 2247 2730 2509 
Q 2541 2772 2181 2772 
Q 1825 2772 1636 2509 
Q 1447 2247 1447 1747 
Q 1447 1247 1636 984 
Q 1825 722 2181 722 
z
" transform="scale(0.015625)"/>
      <path id="DejaVuSans-Bold-6f" d="M 2203 2784 
Q 1831 2784 1636 2517 
Q 1441 2250 1441 1747 
Q 1441 1244 1636 976 
Q 1831 709 2203 709 
Q 2569 709 2762 976 
Q 2956 1244 2956 1747 
Q 2956 2250 2762 2517 
Q 2569 2784 2203 2784 
z
M 2203 3584 
Q 3106 3584 3614 3096 
Q 4122 2609 4122 1747 
Q 4122 884 3614 396 
Q 3106 -91 2203 -91 
Q 1297 -91 786 396 
Q 275 884 275 1747 
Q 275 2609 786 3096 
Q 1297 3584 2203 3584 
z
" transform="scale(0.015625)"/>
      <path id="DejaVuSans-Bold-6d" d="M 3781 2919 
Q 3994 3244 4286 3414 
Q 4578 3584 4928 3584 
Q 5531 3584 5847 3212 
Q 6163 2841 6163 2131 
L 6163 0 
L 5038 0 
L 5038 1825 
Q 5041 1866 5042 1909 
Q 5044 1953 5044 2034 
Q 5044 2406 4934 2573 
Q 4825 2741 4581 2741 
Q 4263 2741 4089 2478 
Q 3916 2216 3909 1719 
L 3909 0 
L 2784 0 
L 2784 1825 
Q 2784 2406 2684 2573 
Q 2584 2741 2328 2741 
Q 2006 2741 1831 2477 
Q 1656 2213 1656 1722 
L 1656 0 
L 531 0 
L 531 3500 
L 1656 3500 
L 1656 2988 
Q 1863 3284 2130 3434 
Q 2397 3584 2719 3584 
Q 3081 3584 3359 3409 
Q 3638 3234 3781 2919 
z
" transform="scale(0.015625)"/>
      <path id="DejaVuSans-Bold-6e" d="M 4056 2131 
L 4056 0 
L 2931 0 
L 2931 347 
L 2931 1631 
Q 2931 2084 2911 2256 
Q 2891 2428 2841 2509 
Q 2775 2619 2662 2680 
Q 2550 2741 2406 2741 
Q 2056 2741 1856 2470 
Q 1656 2200 1656 1722 
L 1656 0 
L 538 0 
L 538 3500 
L 1656 3500 
L 1656 2988 
Q 1909 3294 2193 3439 
Q 2478 3584 2822 3584 
Q 3428 3584 3742 3212 
Q 4056 2841 4056 2131 
z
" transform="scale(0.015625)"/>
     </defs>
     <use xlink:href="#DejaVuSans-Bold-41"/>
     <use xlink:href="#DejaVuSans-Bold-64" transform="translate(77.392578 0)"/>
     <use xlink:href="#DejaVuSans-Bold-64" transform="translate(148.974609 0)"/>
     <use xlink:href="#DejaVuSans-Bold-6f" transform="translate(220.556641 0)"/>
     <use xlink:href="#DejaVuSans-Bold-6d" transform="translate(289.257812 0)"/>
     <use xlink:href="#DejaVuSans-Bold-69" transform="translate(393.457031 0)"/>
     <use xlink:href="#DejaVuSans-Bold-6e" transform="translate(427.734375 0)"/>
     <use xlink:href="#DejaVuSans-Bold-61" transform="translate(498.925781 0)"/>
     <use xlink:href="#DejaVuSans-Bold-6c" transform="translate(566.40625 0)"/>
     <use xlink:href="#DejaVuSans-Bold-69" transform="translate(600.683594 0)"/>
    </g>
    <!-- 100% -->
    <g style="fill: #ffffff" transform="translate(285.127115 372.705305) scale(0.075 -0.075)">
     <defs>
      <path id="DejaVuSans-Bold-31" d="M 750 831 
L 1813 831 
L 1813 3847 
L 722 3622 
L 722 4441 
L 1806 4666 
L 2950 4666 
L 2950 831 
L 4013 831 
L 4013 0 
L 750 0 
L 750 831 
z
" transform="scale(0.015625)"/>
      <path id="DejaVuSans-Bold-30" d="M 2944 2338 
Q 2944 3213 2780 3570 
Q 2616 3928 2228 3928 
Q 1841 3928 1675 3570 
Q 1509 3213 1509 2338 
Q 1509 1453 1675 1090 
Q 1841 728 2228 728 
Q 2613 728 2778 1090 
Q 2944 1453 2944 2338 
z
M 4147 2328 
Q 4147 1169 3647 539 
Q 3147 -91 2228 -91 
Q 1306 -91 806 539 
Q 306 1169 306 2328 
Q 306 3491 806 4120 
Q 1306 4750 2228 4750 
Q 3147 4750 3647 4120 
Q 4147 3491 4147 2328 
z
" transform="scale(0.015625)"/>
     </defs>
     <use xlink:href="#DejaVuSans-Bold-31"/>
     <use xlink:href="#DejaVuSans-Bold-30" transform="translate(69.580078 0)"/>
     <use xlink:href="#DejaVuSans-Bold-30" transform="translate(139.160156 0)"/>
     <use xlink:href="#DejaVuSans-Bold-25" transform="translate(208.740234 0)"/>
    </g>
   </g>
   <g id="text_19">
    <!-- Polpacci -->
    <g style="fill: #ffffff" transform="translate(428.470667 318.841535) scale(0.075 -0.075)">
     <defs>
      <path id="DejaVuSans-Bold-50" d="M 588 4666 
L 2584 4666 
Q 3475 4666 3951 4270 
Q 4428 3875 4428 3144 
Q 4428 2409 3951 2014 
Q 3475 1619 2584 1619 
L 1791 1619 
L 1791 0 
L 588 0 
L 588 4666 
z
M 1791 3794 
L 1791 2491 
L 2456 2491 
Q 2806 2491 2997 2661 
Q 3188 2831 3188 3144 
Q 3188 3456 2997 3625 
Q 2806 3794 2456 3794 
L 1791 3794 
z
" transform="scale(0.015625)"/>
     </defs>
     <use xlink:href="#DejaVuSans-Bold-50"/>
     <use xlink:href="#DejaVuSans-Bold-6f" transform="translate(73.291016 0)"/>
     <use xlink:href="#DejaVuSans-Bold-6c" transform="translate(141.992188 0)"/>
     <use xlink:href="#DejaVuSans-Bold-70" transform="translate(176.269531 0)"/>
     <use xlink:href="#DejaVuSans-Bold-61" transform="translate(247.851562 0)"/>
     <use xlink:href="#DejaVuSans-Bold-63" transform="translate(315.332031 0)"/>
     <use xlink:href="#DejaVuSans-Bold-63" transform="translate(374.609375 0)"/>
     <use xlink:href="#DejaVuSans-Bold-69" transform="translate(433.886719 0)"/>
    </g>
    <!-- 43% -->
    <g style="fill: #ffffff" transform="translate(437.051721 327.239895) scale(0.075 -0.075)">
     <defs>
      <path id="DejaVuSans-Bold-34" d="M 2356 3675 
L 1038 1722 
L 2356 1722 
L 2356 3675 
z
M 2156 4666 
L 3494 4666 
L 3494 1722 
L 4159 1722 
L 4159 850 
L 3494 850 
L 3494 0 
L 2356 0 
L 2356 850 
L 288 850 
L 288 1881 
L 2156 4666 
z
" transform="scale(0.015625)"/>
     </defs>
     <use xlink:href="#DejaVuSans-Bold-34"/>
     <use xlink:href="#DejaVuSans-Bold-33" transform="translate(69.580078 0)"/>
     <use xlink:href="#DejaVuSans-Bold-25" transform="translate(139.160156 0)"/>
    </g>
   </g>
   <g id="text_20">
    <!-- Quadricipiti -->
    <g style="fill: #ffffff" transform="translate(421.264221 220.657589) scale(0.075 -0.075)">
     <defs>
      <path id="DejaVuSans-Bold-51" d="M 2847 -84 
L 2753 -84 
Q 1600 -84 959 553 
Q 319 1191 319 2328 
Q 319 3463 958 4106 
Q 1597 4750 2719 4750 
Q 3853 4750 4486 4112 
Q 5119 3475 5119 2328 
Q 5119 1541 4783 972 
Q 4447 403 3816 116 
L 4756 -934 
L 3609 -934 
L 2847 -84 
z
M 2719 3878 
Q 2169 3878 1866 3472 
Q 1563 3066 1563 2328 
Q 1563 1578 1859 1179 
Q 2156 781 2719 781 
Q 3272 781 3575 1187 
Q 3878 1594 3878 2328 
Q 3878 3066 3575 3472 
Q 3272 3878 2719 3878 
z
" transform="scale(0.015625)"/>
      <path id="DejaVuSans-Bold-75" d="M 500 1363 
L 500 3500 
L 1625 3500 
L 1625 3150 
Q 1625 2866 1622 2436 
Q 1619 2006 1619 1863 
Q 1619 1441 1641 1255 
Q 1663 1069 1716 984 
Q 1784 875 1895 815 
Q 2006 756 2150 756 
Q 2500 756 2700 1025 
Q 2900 1294 2900 1772 
L 2900 3500 
L 4019 3500 
L 4019 0 
L 2900 0 
L 2900 506 
Q 2647 200 2364 54 
Q 2081 -91 1741 -91 
Q 1134 -91 817 281 
Q 500 653 500 1363 
z
" transform="scale(0.015625)"/>
     </defs>
     <use xlink:href="#DejaVuSans-Bold-51"/>
     <use xlink:href="#DejaVuSans-Bold-75" transform="translate(85.009766 0)"/>
     <use xlink:href="#DejaVuSans-Bold-61" transform="translate(156.201172 0)"/>
     <use xlink:href="#DejaVuSans-Bold-64" transform="translate(223.681641 0)"/>
     <use xlink:href="#DejaVuSans-Bold-72" transform="translate(295.263672 0)"/>
     <use xlink:href="#DejaVuSans-Bold-69" transform="translate(344.580078 0)"/>
     <use xlink:href="#DejaVuSans-Bold-63" transform="translate(378.857422 0)"/>
     <use xlink:href="#DejaVuSans-Bold-69" transform="translate(438.134766 0)"/>
     <use xlink:href="#DejaVuSans-Bold-70" transform="translate(472.412109 0)"/>
     <use xlink:href="#DejaVuSans-Bold-69" transform="translate(543.994141 0)"/>
     <use xlink:href="#DejaVuSans-Bold-74" transform="translate(578.271484 0)"/>
     <use xlink:href="#DejaVuSans-Bold-69" transform="translate(626.074219 0)"/>
    </g>
    <!-- 21% -->
    <g style="fill: #ffffff" transform="translate(437.051721 229.055948) scale(0.075 -0.075)">
     <defs>
      <path id="DejaVuSans-Bold-32" d="M 1844 884 
L 3897 884 
L 3897 0 
L 506 0 
L 506 884 
L 2209 2388 
Q 2438 2594 2547 2791 
Q 2656 2988 2656 3200 
Q 2656 3528 2436 3728 
Q 2216 3928 1850 3928 
Q 1569 3928 1234 3808 
Q 900 3688 519 3450 
L 519 4475 
Q 925 4609 1322 4679 
Q 1719 4750 2100 4750 
Q 2938 4750 3402 4381 
Q 3866 4013 3866 3353 
Q 3866 2972 3669 2642 
Q 3472 2313 2841 1759 
L 1844 884 
z
" transform="scale(0.015625)"/>
     </defs>
     <use xlink:href="#DejaVuSans-Bold-32"/>
     <use xlink:href="#DejaVuSans-Bold-31" transform="translate(69.580078 0)"/>
     <use xlink:href="#DejaVuSans-Bold-25" transform="translate(139.160156 0)"/>
    </g>
   </g>
   <g id="text_21">
    <!-- Femorali -->
    <g style="fill: #ffffff" transform="translate(427.637464 155.107035) scale(0.075 -0.075)">
     <defs>
      <path id="DejaVuSans-Bold-46" d="M 588 4666 
L 3834 4666 
L 3834 3756 
L 1791 3756 
L 1791 2888 
L 3713 2888 
L 3713 1978 
L 1791 1978 
L 1791 0 
L 588 0 
L 588 4666 
z
" transform="scale(0.015625)"/>
     </defs>
     <use xlink:href="#DejaVuSans-Bold-46"/>
     <use xlink:href="#DejaVuSans-Bold-65" transform="translate(64.310547 0)"/>
     <use xlink:href="#DejaVuSans-Bold-6d" transform="translate(132.132812 0)"/>
     <use xlink:href="#DejaVuSans-Bold-6f" transform="translate(236.332031 0)"/>
     <use xlink:href="#DejaVuSans-Bold-72" transform="translate(305.033203 0)"/>
     <use xlink:href="#DejaVuSans-Bold-61" transform="translate(354.349609 0)"/>
     <use xlink:href="#DejaVuSans-Bold-6c" transform="translate(421.830078 0)"/>
     <use xlink:href="#DejaVuSans-Bold-69" transform="translate(456.107422 0)"/>
    </g>
    <!-- 21% -->
    <g style="fill: #ffffff" transform="translate(437.051721 163.505394) scale(0.075 -0.075)">
     <use xlink:href="#DejaVuSans-Bold-32"/>
     <use xlink:href="#DejaVuSans-Bold-31" transform="translate(69.580078 0)"/>
     <use xlink:href="#DejaVuSans-Bold-25" transform="translate(139.160156 0)"/>
    </g>
   </g>
   <g id="text_22">
    <!-- Glutei -->
    <g style="fill: #191919" transform="translate(433.373206 108.487903) scale(0.075 -0.075)">
     <defs>
      <path id="DejaVuSans-Bold-47" d="M 4781 347 
Q 4331 128 3847 18 
Q 3363 -91 2847 -91 
Q 1681 -91 1000 561 
Q 319 1213 319 2328 
Q 319 3456 1012 4103 
Q 1706 4750 2913 4750 
Q 3378 4750 3804 4662 
Q 4231 4575 4609 4403 
L 4609 3438 
Q 4219 3659 3833 3768 
Q 3447 3878 3059 3878 
Q 2341 3878 1952 3476 
Q 1563 3075 1563 2328 
Q 1563 1588 1938 1184 
Q 2313 781 3003 781 
Q 3191 781 3352 804 
Q 3513 828 3641 878 
L 3641 1784 
L 2906 1784 
L 2906 2591 
L 4781 2591 
L 4781 347 
z
" transform="scale(0.015625)"/>
     </defs>
     <use xlink:href="#DejaVuSans-Bold-47"/>
     <use xlink:href="#DejaVuSans-Bold-6c" transform="translate(82.080078 0)"/>
     <use xlink:href="#DejaVuSans-Bold-75" transform="translate(116.357422 0)"/>
     <use xlink:href="#DejaVuSans-Bold-74" transform="translate(187.548828 0)"/>
     <use xlink:href="#DejaVuSans-Bold-65" transform="translate(235.351562 0)"/>
     <use xlink:href="#DejaVuSans-Bold-69" transform="translate(303.173828 0)"/>
    </g>
    <!-- 9% -->
    <g style="fill: #191919" transform="translate(439.660901 116.886262) scale(0.075 -0.075)">
     <use xlink:href="#DejaVuSans-Bold-39"/>
     <use xlink:href="#DejaVuSans-Bold-25" transform="translate(69.580078 0)"/>
    </g>
   </g>
   <g id="text_23">
    <!-- Flessori -->
    <g style="fill: #191919" transform="translate(429.462073 86.015859) scale(0.075 -0.075)">
     <defs>
      <path id="DejaVuSans-Bold-73" d="M 3272 3391 
L 3272 2541 
Q 2913 2691 2578 2766 
Q 2244 2841 1947 2841 
Q 1628 2841 1473 2761 
Q 1319 2681 1319 2516 
Q 1319 2381 1436 2309 
Q 1553 2238 1856 2203 
L 2053 2175 
Q 2913 2066 3209 1816 
Q 3506 1566 3506 1031 
Q 3506 472 3093 190 
Q 2681 -91 1863 -91 
Q 1516 -91 1145 -36 
Q 775 19 384 128 
L 384 978 
Q 719 816 1070 734 
Q 1422 653 1784 653 
Q 2113 653 2278 743 
Q 2444 834 2444 1013 
Q 2444 1163 2330 1236 
Q 2216 1309 1875 1350 
L 1678 1375 
Q 931 1469 631 1722 
Q 331 1975 331 2491 
Q 331 3047 712 3315 
Q 1094 3584 1881 3584 
Q 2191 3584 2531 3537 
Q 2872 3491 3272 3391 
z
" transform="scale(0.015625)"/>
     </defs>
     <use xlink:href="#DejaVuSans-Bold-46"/>
     <use xlink:href="#DejaVuSans-Bold-6c" transform="translate(68.310547 0)"/>
     <use xlink:href="#DejaVuSans-Bold-65" transform="translate(102.587891 0)"/>
     <use xlink:href="#DejaVuSans-Bold-73" transform="translate(170.410156 0)"/>
     <use xlink:href="#DejaVuSans-Bold-73" transform="translate(229.931641 0)"/>
     <use xlink:href="#DejaVuSans-Bold-6f" transform="translate(289.453125 0)"/>
     <use xlink:href="#DejaVuSans-Bold-72" transform="translate(358.154297 0)"/>
     <use xlink:href="#DejaVuSans-Bold-69" transform="translate(407.470703 0)"/>
    </g>
    <!-- 6% -->
    <g style="fill: #191919" transform="translate(439.660901 94.414219) scale(0.075 -0.075)">
     <defs>
      <path id="DejaVuSans-Bold-36" d="M 2316 2303 
Q 2000 2303 1842 2098 
Q 1684 1894 1684 1484 
Q 1684 1075 1842 870 
Q 2000 666 2316 666 
Q 2634 666 2792 870 
Q 2950 1075 2950 1484 
Q 2950 1894 2792 2098 
Q 2634 2303 2316 2303 
z
M 3803 4544 
L 3803 3681 
Q 3506 3822 3243 3889 
Q 2981 3956 2731 3956 
Q 2194 3956 1894 3657 
Q 1594 3359 1544 2772 
Q 1750 2925 1990 3001 
Q 2231 3078 2516 3078 
Q 3231 3078 3670 2659 
Q 4109 2241 4109 1563 
Q 4109 813 3618 361 
Q 3128 -91 2303 -91 
Q 1394 -91 895 523 
Q 397 1138 397 2266 
Q 397 3422 980 4083 
Q 1563 4744 2578 4744 
Q 2900 4744 3203 4694 
Q 3506 4644 3803 4544 
z
" transform="scale(0.015625)"/>
     </defs>
     <use xlink:href="#DejaVuSans-Bold-36"/>
     <use xlink:href="#DejaVuSans-Bold-25" transform="translate(69.580078 0)"/>
    </g>
   </g>
   <g id="text_24">
    <!-- Pettorali -->
    <g style="fill: #ffffff" transform="translate(576.938828 211.174987) scale(0.075 -0.075)">
     <use xlink:href="#DejaVuSans-Bold-50"/>
     <use xlink:href="#DejaVuSans-Bold-65" transform="translate(73.291016 0)"/>
     <use xlink:href="#DejaVuSans-Bold-74" transform="translate(141.113281 0)"/>
     <use xlink:href="#DejaVuSans-Bold-74" transform="translate(188.916016 0)"/>
     <use xlink:href="#DejaVuSans-Bold-6f" transform="translate(236.71875 0)"/>
     <use xlink:href="#DejaVuSans-Bold-72" transform="translate(305.419922 0)"/>
     <use xlink:href="#DejaVuSans-Bold-61" transform="translate(354.736328 0)"/>
     <use xlink:href="#DejaVuSans-Bold-6c" transform="translate(422.216797 0)"/>
     <use xlink:href="#DejaVuSans-Bold-69" transform="translate(456.494141 0)"/>
    </g>
    <!-- 100% -->
    <g style="fill: #ffffff" transform="translate(583.757969 219.573346) scale(0.075 -0.075)">
     <use xlink:href="#DejaVuSans-Bold-31"/>
     <use xlink:href="#DejaVuSans-Bold-30" transform="translate(69.580078 0)"/>
     <use xlink:href="#DejaVuSans-Bold-30" transform="translate(139.160156 0)"/>
     <use xlink:href="#DejaVuSans-Bold-25" transform="translate(208.740234 0)"/>
    </g>
   </g>
   <g id="text_25">
    <!-- Dorsali -->
    <g style="fill: #ffffff" transform="translate(729.786286 219.971815) scale(0.075 -0.075)">
     <defs>
      <path id="DejaVuSans-Bold-44" d="M 1791 3756 
L 1791 909 
L 2222 909 
Q 2959 909 3348 1275 
Q 3738 1641 3738 2338 
Q 3738 3031 3350 3393 
Q 2963 3756 2222 3756 
L 1791 3756 
z
M 588 4666 
L 1856 4666 
Q 2919 4666 3439 4514 
Q 3959 4363 4331 4000 
Q 4659 3684 4818 3271 
Q 4978 2859 4978 2338 
Q 4978 1809 4818 1395 
Q 4659 981 4331 666 
Q 3956 303 3431 151 
Q 2906 0 1856 0 
L 588 0 
L 588 4666 
z
" transform="scale(0.015625)"/>
     </defs>
     <use xlink:href="#DejaVuSans-Bold-44"/>
     <use xlink:href="#DejaVuSans-Bold-6f" transform="translate(83.007812 0)"/>
     <use xlink:href="#DejaVuSans-Bold-72" transform="translate(151.708984 0)"/>
     <use xlink:href="#DejaVuSans-Bold-73" transform="translate(201.025391 0)"/>
     <use xlink:href="#DejaVuSans-Bold-61" transform="translate(260.546875 0)"/>
     <use xlink:href="#DejaVuSans-Bold-6c" transform="translate(328.027344 0)"/>
     <use xlink:href="#DejaVuSans-Bold-69" transform="translate(362.304688 0)"/>
    </g>
    <!-- 96% -->
    <g style="fill: #ffffff" transform="translate(735.682575 228.370174) scale(0.075 -0.075)">
     <use xlink:href="#DejaVuSans-Bold-39"/>
     <use xlink:href="#DejaVuSans-Bold-36" transform="translate(69.580078 0)"/>
     <use xlink:href="#DejaVuSans-Bold-25" transform="translate(139.160156 0)"/>
    </g>
   </g>
   <g id="text_26">
    <!-- Deltoidi -->
    <g style="fill: #ffffff" transform="translate(877.407768 327.557286) scale(0.075 -0.075)">
     <use xlink:href="#DejaVuSans-Bold-44"/>
     <use xlink:href="#DejaVuSans-Bold-65" transform="translate(83.007812 0)"/>
     <use xlink:href="#DejaVuSans-Bold-6c" transform="translate(150.830078 0)"/>
     <use xlink:href="#DejaVuSans-Bold-74" transform="translate(185.107422 0)"/>
     <use xlink:href="#DejaVuSans-Bold-6f" transform="translate(232.910156 0)"/>
     <use xlink:href="#DejaVuSans-Bold-69" transform="translate(301.611328 0)"/>
     <use xlink:href="#DejaVuSans-Bold-64" transform="translate(335.888672 0)"/>
     <use xlink:href="#DejaVuSans-Bold-69" transform="translate(407.470703 0)"/>
    </g>
    <!-- 67% -->
    <g style="fill: #ffffff" transform="translate(884.998002 335.955645) scale(0.075 -0.075)">
     <use xlink:href="#DejaVuSans-Bold-36"/>
     <use xlink:href="#DejaVuSans-Bold-37" transform="translate(69.580078 0)"/>
     <use xlink:href="#DejaVuSans-Bold-25" transform="translate(139.160156 0)"/>
    </g>
   </g>
   <g id="text_27">
    <!-- Deltoidi Posteriori -->
    <g style="fill: #ffffff" transform="translate(855.363627 253.270712) scale(0.075 -0.075)">
     <defs>
      <path id="DejaVuSans-Bold-20" transform="scale(0.015625)"/>
     </defs>
     <use xlink:href="#DejaVuSans-Bold-44"/>
     <use xlink:href="#DejaVuSans-Bold-65" transform="translate(83.007812 0)"/>
     <use xlink:href="#DejaVuSans-Bold-6c" transform="translate(150.830078 0)"/>
     <use xlink:href="#DejaVuSans-Bold-74" transform="translate(185.107422 0)"/>
     <use xlink:href="#DejaVuSans-Bold-6f" transform="translate(232.910156 0)"/>
     <use xlink:href="#DejaVuSans-Bold-69" transform="translate(301.611328 0)"/>
     <use xlink:href="#DejaVuSans-Bold-64" transform="translate(335.888672 0)"/>
     <use xlink:href="#DejaVuSans-Bold-69" transform="translate(407.470703 0)"/>
     <use xlink:href="#DejaVuSans-Bold-20" transform="translate(441.748047 0)"/>
     <use xlink:href="#DejaVuSans-Bold-50" transform="translate(476.5625 0)"/>
     <use xlink:href="#DejaVuSans-Bold-6f" transform="translate(549.853516 0)"/>
     <use xlink:href="#DejaVuSans-Bold-73" transform="translate(618.554688 0)"/>
     <use xlink:href="#DejaVuSans-Bold-74" transform="translate(678.076172 0)"/>
     <use xlink:href="#DejaVuSans-Bold-65" transform="translate(725.878906 0)"/>
     <use xlink:href="#DejaVuSans-Bold-72" transform="translate(793.701172 0)"/>
     <use xlink:href="#DejaVuSans-Bold-69" transform="translate(843.017578 0)"/>
     <use xlink:href="#DejaVuSans-Bold-6f" transform="translate(877.294922 0)"/>
     <use xlink:href="#DejaVuSans-Bold-72" transform="translate(945.996094 0)"/>
     <use xlink:href="#DejaVuSans-Bold-69" transform="translate(995.3125 0)"/>
    </g>
    <!-- 21% -->
    <g style="fill: #ffffff" transform="translate(884.998002 261.669072) scale(0.075 -0.075)">
     <use xlink:href="#DejaVuSans-Bold-32"/>
     <use xlink:href="#DejaVuSans-Bold-31" transform="translate(69.580078 0)"/>
     <use xlink:href="#DejaVuSans-Bold-25" transform="translate(139.160156 0)"/>
    </g>
   </g>
   <g id="text_28">
    <!-- Deltoidi Laterali -->
    <g style="fill: #ffffff" transform="translate(859.895268 225.69786) scale(0.075 -0.075)">
     <defs>
      <path id="DejaVuSans-Bold-4c" d="M 588 4666 
L 1791 4666 
L 1791 909 
L 3903 909 
L 3903 0 
L 588 0 
L 588 4666 
z
" transform="scale(0.015625)"/>
     </defs>
     <use xlink:href="#DejaVuSans-Bold-44"/>
     <use xlink:href="#DejaVuSans-Bold-65" transform="translate(83.007812 0)"/>
     <use xlink:href="#DejaVuSans-Bold-6c" transform="translate(150.830078 0)"/>
     <use xlink:href="#DejaVuSans-Bold-74" transform="translate(185.107422 0)"/>
     <use xlink:href="#DejaVuSans-Bold-6f" transform="translate(232.910156 0)"/>
     <use xlink:href="#DejaVuSans-Bold-69" transform="translate(301.611328 0)"/>
     <use xlink:href="#DejaVuSans-Bold-64" transform="translate(335.888672 0)"/>
     <use xlink:href="#DejaVuSans-Bold-69" transform="translate(407.470703 0)"/>
     <use xlink:href="#DejaVuSans-Bold-20" transform="translate(441.748047 0)"/>
     <use xlink:href="#DejaVuSans-Bold-4c" transform="translate(476.5625 0)"/>
     <use xlink:href="#DejaVuSans-Bold-61" transform="translate(540.283203 0)"/>
     <use xlink:href="#DejaVuSans-Bold-74" transform="translate(607.763672 0)"/>
     <use xlink:href="#DejaVuSans-Bold-65" transform="translate(655.566406 0)"/>
     <use xlink:href="#DejaVuSans-Bold-72" transform="translate(723.388672 0)"/>
     <use xlink:href="#DejaVuSans-Bold-61" transform="translate(772.705078 0)"/>
     <use xlink:href="#DejaVuSans-Bold-6c" transform="translate(840.185547 0)"/>
     <use xlink:href="#DejaVuSans-Bold-69" transform="translate(874.462891 0)"/>
    </g>
    <!-- 12% -->
    <g style="fill: #ffffff" transform="translate(884.998002 234.09622) scale(0.075 -0.075)">
     <use xlink:href="#DejaVuSans-Bold-31"/>
     <use xlink:href="#DejaVuSans-Bold-32" transform="translate(69.580078 0)"/>
     <use xlink:href="#DejaVuSans-Bold-25" transform="translate(139.160156 0)"/>
    </g>
   </g>
   <g id="text_29">
    <!-- Tricipiti -->
    <g style="fill: #ffffff" transform="translate(1027.452687 290.454537) scale(0.075 -0.075)">
     <defs>
      <path id="DejaVuSans-Bold-54" d="M 31 4666 
L 4331 4666 
L 4331 3756 
L 2784 3756 
L 2784 0 
L 1581 0 
L 1581 3756 
L 31 3756 
L 31 4666 
z
" transform="scale(0.015625)"/>
     </defs>
     <use xlink:href="#DejaVuSans-Bold-54"/>
     <use xlink:href="#DejaVuSans-Bold-72" transform="translate(57.212891 0)"/>
     <use xlink:href="#DejaVuSans-Bold-69" transform="translate(106.529297 0)"/>
     <use xlink:href="#DejaVuSans-Bold-63" transform="translate(140.806641 0)"/>
     <use xlink:href="#DejaVuSans-Bold-69" transform="translate(200.083984 0)"/>
     <use xlink:href="#DejaVuSans-Bold-70" transform="translate(234.361328 0)"/>
     <use xlink:href="#DejaVuSans-Bold-69" transform="translate(305.943359 0)"/>
     <use xlink:href="#DejaVuSans-Bold-74" transform="translate(340.220703 0)"/>
     <use xlink:href="#DejaVuSans-Bold-69" transform="translate(388.023438 0)"/>
    </g>
    <!-- 100% -->
    <g style="fill: #ffffff" transform="translate(1031.70425 298.852897) scale(0.075 -0.075)">
     <use xlink:href="#DejaVuSans-Bold-31"/>
     <use xlink:href="#DejaVuSans-Bold-30" transform="translate(69.580078 0)"/>
     <use xlink:href="#DejaVuSans-Bold-30" transform="translate(139.160156 0)"/>
     <use xlink:href="#DejaVuSans-Bold-25" transform="translate(208.740234 0)"/>
    </g>
   </g>
   <g id="text_30">
    <!-- Volume per Muscle Group -->
    <g style="fill: #ffffff" transform="translate(501.371406 17.077969) scale(0.13 -0.13)">
     <defs>
      <path id="DejaVuSans-Bold-56" d="M 31 4666 
L 1241 4666 
L 2478 1222 
L 3713 4666 
L 4922 4666 
L 3194 0 
L 1759 0 
L 31 4666 
z
" transform="scale(0.015625)"/>
      <path id="DejaVuSans-Bold-4d" d="M 588 4666 
L 2119 4666 
L 3181 2169 
L 4250 4666 
L 5778 4666 
L 5778 0 
L 4641 0 
L 4641 3413 
L 3566 897 
L 2803 897 
L 1728 3413 
L 1728 0 
L 588 0 
L 588 4666 
z
" transform="scale(0.015625)"/>
     </defs>
     <use xlink:href="#DejaVuSans-Bold-56"/>
     <use xlink:href="#DejaVuSans-Bold-6f" transform="translate(71.892578 0)"/>
     <use xlink:href="#DejaVuSans-Bold-6c" transform="translate(140.59375 0)"/>
     <use xlink:href="#DejaVuSans-Bold-75" transform="translate(174.871094 0)"/>
     <use xlink:href="#DejaVuSans-Bold-6d" transform="translate(246.0625 0)"/>
     <use xlink:href="#DejaVuSans-Bold-65" transform="translate(350.261719 0)"/>
     <use xlink:href="#DejaVuSans-Bold-20" transform="translate(418.083984 0)"/>
     <use xlink:href="#DejaVuSans-Bold-70" transform="translate(452.898438 0)"/>
     <use xlink:href="#DejaVuSans-Bold-65" transform="translate(524.480469 0)"/>
     <use xlink:href="#DejaVuSans-Bold-72" transform="translate(592.302734 0)"/>
     <use xlink:href="#DejaVuSans-Bold-20" transform="translate(641.619141 0)"/>
     <use xlink:href="#DejaVuSans-Bold-4d" transform="translate(676.433594 0)"/>
     <use xlink:href="#DejaVuSans-Bold-75" transform="translate(775.945312 0)"/>
     <use xlink:href="#DejaVuSans-Bold-73" transform="translate(847.136719 0)"/>
     <use xlink:href="#DejaVuSans-Bold-63" transform="translate(906.658203 0)"/>
     <use xlink:href="#DejaVuSans-Bold-6c" transform="translate(965.935547 0)"/>
     <use xlink:href="#DejaVuSans-Bold-65" transform="translate(1000.212891 0)"/>
     <use xlink:href="#DejaVuSans-Bold-20" transform="translate(1068.035156 0)"/>
     <use xlink:href="#DejaVuSans-Bold-47" transform="translate(1102.849609 0)"/>
     <use xlink:href="#DejaVuSans-Bold-72" transform="translate(1184.929688 0)"/>
     <use xlink:href="#DejaVuSans-Bold-6f" transform="translate(1234.246094 0)"/>
     <use xlink:href="#DejaVuSans-Bold-75" transform="translate(1302.947266 0)"/>
     <use xlink:href="#DejaVuSans-Bold-70" transform="translate(1374.138672 0)"/>
    </g>
   </g>
  </g>
 </g>
 <defs>
  <clipPath id="p66e1c62740">
   <rect x="53.328125" y="23.077969" width="1084.03" height="363.16"/>
  </clipPath>
 </defs>
</svg>
